<svg xmlns="http://www.w3.org/2000/svg" width="1260" height="650" viewBox="0 0 1260 650"><rect width="100%" height="100%" fill="#070b16"/><rect x="24" y="24" width="1212" height="602" rx="28" fill="#0d1527" stroke="#283859" stroke-width="2"/><text x="64" y="76" fill="#f4f7ff" font-family="Inter,system-ui,sans-serif" font-size="30" font-weight="700">Cross-model orchestration transfer</text><text x="64" y="112" fill="#9aa9c7" font-family="Inter,system-ui,sans-serif" font-size="17">Exact accuracy on 12 identical historical cases · four per family</text><line x1="110" y1="515.0" x2="1190" y2="515.0" stroke="#263451"/><text x="92" y="520.0" text-anchor="end" fill="#7585a3" font-family="ui-monospace,monospace" font-size="13">0%</text><line x1="110" y1="443.0" x2="1190" y2="443.0" stroke="#263451"/><text x="92" y="448.0" text-anchor="end" fill="#7585a3" font-family="ui-monospace,monospace" font-size="13">22%</text><line x1="110" y1="371.0" x2="1190" y2="371.0" stroke="#263451"/><text x="92" y="376.0" text-anchor="end" fill="#7585a3" font-family="ui-monospace,monospace" font-size="13">44%</text><line x1="110" y1="299.0" x2="1190" y2="299.0" stroke="#263451"/><text x="92" y="304.0" text-anchor="end" fill="#7585a3" font-family="ui-monospace,monospace" font-size="13">66%</text><line x1="110" y1="227.0" x2="1190" y2="227.0" stroke="#263451"/><text x="92" y="232.0" text-anchor="end" fill="#7585a3" font-family="ui-monospace,monospace" font-size="13">88%</text><line x1="110" y1="155.0" x2="1190" y2="155.0" stroke="#263451"/><text x="92" y="160.0" text-anchor="end" fill="#7585a3" font-family="ui-monospace,monospace" font-size="13">110%</text><rect x="147.0" y="487.7" width="42" height="27.3" rx="8" fill="#58d6ff"/><text x="168.0" y="478.7" text-anchor="middle" fill="#58d6ff" font-family="ui-monospace,monospace" font-size="13" font-weight="700">8.3%</text><rect x="197.0" y="324.1" width="42" height="190.9" rx="8" fill="#ffca64"/><text x="218.0" y="315.1" text-anchor="middle" fill="#ffca64" font-family="ui-monospace,monospace" font-size="13" font-weight="700">58.3%</text><rect x="247.0" y="433.2" width="42" height="81.8" rx="8" fill="#c58cff"/><text x="268.0" y="424.2" text-anchor="middle" fill="#c58cff" font-family="ui-monospace,monospace" font-size="13" font-weight="700">25.0%</text><text x="218.0" y="549" text-anchor="middle" fill="#dce4f5" font-family="Inter,system-ui,sans-serif" font-size="15">Direct</text><rect x="363.0" y="487.7" width="42" height="27.3" rx="8" fill="#58d6ff"/><text x="384.0" y="478.7" text-anchor="middle" fill="#58d6ff" font-family="ui-monospace,monospace" font-size="13" font-weight="700">8.3%</text><rect x="413.0" y="242.3" width="42" height="272.7" rx="8" fill="#ffca64"/><text x="434.0" y="233.3" text-anchor="middle" fill="#ffca64" font-family="ui-monospace,monospace" font-size="13" font-weight="700">83.3%</text><rect x="463.0" y="378.6" width="42" height="136.4" rx="8" fill="#c58cff"/><text x="484.0" y="369.6" text-anchor="middle" fill="#c58cff" font-family="ui-monospace,monospace" font-size="13" font-weight="700">41.7%</text><text x="434.0" y="549" text-anchor="middle" fill="#dce4f5" font-family="Inter,system-ui,sans-serif" font-size="15">Plurality</text><rect x="579.0" y="378.6" width="42" height="136.4" rx="8" fill="#58d6ff"/><text x="600.0" y="369.6" text-anchor="middle" fill="#58d6ff" font-family="ui-monospace,monospace" font-size="13" font-weight="700">41.7%</text><rect x="629.0" y="215.0" width="42" height="300.0" rx="8" fill="#ffca64"/><text x="650.0" y="206.0" text-anchor="middle" fill="#ffca64" font-family="ui-monospace,monospace" font-size="13" font-weight="700">91.7%</text><rect x="679.0" y="269.5" width="42" height="245.5" rx="8" fill="#c58cff"/><text x="700.0" y="260.5" text-anchor="middle" fill="#c58cff" font-family="ui-monospace,monospace" font-size="13" font-weight="700">75.0%</text><text x="650.0" y="549" text-anchor="middle" fill="#dce4f5" font-family="Inter,system-ui,sans-serif" font-size="15">1 repair</text><rect x="795.0" y="405.9" width="42" height="109.1" rx="8" fill="#58d6ff"/><text x="816.0" y="396.9" text-anchor="middle" fill="#58d6ff" font-family="ui-monospace,monospace" font-size="13" font-weight="700">33.3%</text><rect x="845.0" y="215.0" width="42" height="300.0" rx="8" fill="#ffca64"/><text x="866.0" y="206.0" text-anchor="middle" fill="#ffca64" font-family="ui-monospace,monospace" font-size="13" font-weight="700">91.7%</text><rect x="895.0" y="242.3" width="42" height="272.7" rx="8" fill="#c58cff"/><text x="916.0" y="233.3" text-anchor="middle" fill="#c58cff" font-family="ui-monospace,monospace" font-size="13" font-weight="700">83.3%</text><text x="866.0" y="549" text-anchor="middle" fill="#dce4f5" font-family="Inter,system-ui,sans-serif" font-size="15">3 repairs</text><rect x="1011.0" y="487.7" width="42" height="27.3" rx="8" fill="#58d6ff"/><text x="1032.0" y="478.7" text-anchor="middle" fill="#58d6ff" font-family="ui-monospace,monospace" font-size="13" font-weight="700">8.3%</text><rect x="1061.0" y="215.0" width="42" height="300.0" rx="8" fill="#ffca64"/><text x="1082.0" y="206.0" text-anchor="middle" fill="#ffca64" font-family="ui-monospace,monospace" font-size="13" font-weight="700">91.7%</text><rect x="1111.0" y="215.0" width="42" height="300.0" rx="8" fill="#c58cff"/><text x="1132.0" y="206.0" text-anchor="middle" fill="#c58cff" font-family="ui-monospace,monospace" font-size="13" font-weight="700">91.7%</text><text x="1082.0" y="549" text-anchor="middle" fill="#dce4f5" font-family="Inter,system-ui,sans-serif" font-size="15">Cross-exam</text><circle cx="320" cy="584" r="7" fill="#58d6ff"/><text x="335" y="589" fill="#cfd8eb" font-family="Inter,system-ui,sans-serif" font-size="15">Luna Light (existing)</text><circle cx="580" cy="584" r="7" fill="#ffca64"/><text x="595" y="589" fill="#cfd8eb" font-family="Inter,system-ui,sans-serif" font-size="15">Terra Low</text><circle cx="840" cy="584" r="7" fill="#c58cff"/><text x="855" y="589" fill="#cfd8eb" font-family="Inter,system-ui,sans-serif" font-size="15">Luna Medium</text></svg>