<svg xmlns="http://www.w3.org/2000/svg" width="1600" height="1000" viewBox="0 0 1600 1000" role="img" aria-labelledby="title desc">
  <title id="title">Swarmwright Lab Iterations 1 through 3</title>
  <desc id="desc">Repair swarm accuracy versus direct baseline across three fresh panels, pooled family performance, and helpful versus harmful repairs.</desc>
  <defs>
    <linearGradient id="bg" x1="0" y1="0" x2="1" y2="1">
      <stop offset="0" stop-color="#071423"/>
      <stop offset="1" stop-color="#10122a"/>
    </linearGradient>
    <linearGradient id="repair" x1="0" y1="0" x2="0" y2="1">
      <stop offset="0" stop-color="#5ef2d0"/>
      <stop offset="1" stop-color="#2bc5dd"/>
    </linearGradient>
    <filter id="glow" x="-30%" y="-30%" width="160%" height="160%">
      <feGaussianBlur stdDeviation="9" result="blur"/>
      <feMerge><feMergeNode in="blur"/><feMergeNode in="SourceGraphic"/></feMerge>
    </filter>
    <style>
      .sans { font-family: Inter, ui-sans-serif, system-ui, -apple-system, BlinkMacSystemFont, "Segoe UI", sans-serif; }
      .mono { font-family: ui-monospace, SFMono-Regular, Menlo, Monaco, Consolas, monospace; }
      .muted { fill: #91a1b8; }
      .label { fill: #d9e5f2; font-size: 24px; }
      .small { fill: #91a1b8; font-size: 19px; }
      .value { fill: #f7fbff; font-size: 25px; font-weight: 750; }
      .grid { stroke: #26344b; stroke-width: 1; }
    </style>
  </defs>
  <rect width="1600" height="1000" rx="38" fill="url(#bg)"/>
  <circle cx="1400" cy="80" r="180" fill="#4b3aa3" opacity=".14"/>
  <circle cx="150" cy="900" r="220" fill="#11b8b0" opacity=".09"/>

  <g class="sans">
    <text x="92" y="92" fill="#5ef2d0" font-size="20" font-weight="800" letter-spacing="5">SWARMWRIGHT LAB</text>
    <text x="92" y="155" fill="#f7fbff" font-size="48" font-weight="800">Three fresh panels. One stable repair swarm.</text>
    <text x="92" y="198" class="muted" font-size="23">Exact accuracy, higher is better. Fresh panels mean these are replications, not a learning curve.</text>

    <rect x="72" y="245" width="970" height="525" rx="28" fill="#111b31" stroke="#2d3b55"/>
    <text x="110" y="298" fill="#f7fbff" font-size="27" font-weight="750">Exact accuracy by iteration</text>
    <rect x="672" y="274" width="18" height="18" rx="4" fill="#59667b"/>
    <text x="701" y="290" class="small">Direct</text>
    <rect x="811" y="274" width="18" height="18" rx="4" fill="url(#repair)"/>
    <text x="840" y="290" class="small">5 solvers + 3 repairers</text>

    <g transform="translate(110 340)">
      <line x1="0" y1="0" x2="850" y2="0" class="grid"/>
      <line x1="0" y1="78" x2="850" y2="78" class="grid"/>
      <line x1="0" y1="156" x2="850" y2="156" class="grid"/>
      <line x1="0" y1="234" x2="850" y2="234" class="grid"/>
      <line x1="0" y1="312" x2="850" y2="312" class="grid"/>
      <text x="-18" y="8" text-anchor="end" class="small">60%</text>
      <text x="-18" y="86" text-anchor="end" class="small">45%</text>
      <text x="-18" y="164" text-anchor="end" class="small">30%</text>
      <text x="-18" y="242" text-anchor="end" class="small">15%</text>
      <text x="-18" y="320" text-anchor="end" class="small">0%</text>

      <rect x="56" y="269" width="48" height="43" rx="8" fill="#59667b"/>
      <rect x="116" y="52" width="74" height="260" rx="10" fill="url(#repair)" filter="url(#glow)"/>
      <text x="80" y="255" text-anchor="middle" class="small">8.3%</text>
      <text x="153" y="38" text-anchor="middle" class="value">50.0%</text>
      <text x="123" y="354" text-anchor="middle" class="label">Iteration 1</text>

      <rect x="270" y="309" width="48" height="3" rx="2" fill="#59667b"/>
      <rect x="330" y="95" width="74" height="217" rx="10" fill="url(#repair)"/>
      <text x="294" y="294" text-anchor="middle" class="small">0.0%</text>
      <text x="367" y="81" text-anchor="middle" class="value">41.7%</text>
      <text x="337" y="354" text-anchor="middle" class="label">Iteration 2</text>

      <rect x="484" y="225" width="48" height="87" rx="8" fill="#59667b"/>
      <rect x="544" y="95" width="74" height="217" rx="10" fill="url(#repair)"/>
      <text x="508" y="211" text-anchor="middle" class="small">16.7%</text>
      <text x="581" y="81" text-anchor="middle" class="value">41.7%</text>
      <text x="551" y="354" text-anchor="middle" class="label">Iteration 3</text>

      <rect x="698" y="269" width="48" height="43" rx="8" fill="#59667b"/>
      <rect x="758" y="81" width="74" height="231" rx="10" fill="#8d7cff"/>
      <text x="722" y="255" text-anchor="middle" class="small">8.3%</text>
      <text x="795" y="67" text-anchor="middle" class="value">44.4%</text>
      <text x="765" y="354" text-anchor="middle" fill="#b6aaff" font-size="24" font-weight="750">Combined</text>
    </g>

    <rect x="1070" y="245" width="458" height="525" rx="28" fill="#111b31" stroke="#2d3b55"/>
    <text x="1110" y="298" fill="#f7fbff" font-size="27" font-weight="750">Pooled repair accuracy</text>
    <text x="1110" y="332" class="small">12 problems per family</text>

    <text x="1110" y="400" class="label">Sequence</text>
    <rect x="1110" y="422" width="350" height="22" rx="11" fill="#223047"/>
    <rect x="1110" y="422" width="233" height="22" rx="11" fill="#5ef2d0"/>
    <text x="1470" y="441" text-anchor="end" class="value">66.7%</text>

    <text x="1110" y="504" class="label">Planning</text>
    <rect x="1110" y="526" width="350" height="22" rx="11" fill="#223047"/>
    <rect x="1110" y="526" width="117" height="22" rx="11" fill="#ffbd66"/>
    <text x="1470" y="545" text-anchor="end" class="value">33.3%</text>

    <text x="1110" y="608" class="label">Logic</text>
    <rect x="1110" y="630" width="350" height="22" rx="11" fill="#223047"/>
    <rect x="1110" y="630" width="117" height="22" rx="11" fill="#9a84ff"/>
    <text x="1470" y="649" text-anchor="end" class="value">33.3%</text>

    <line x1="1110" y1="690" x2="1488" y2="690" stroke="#2d3b55"/>
    <text x="1110" y="731" class="small">Current frontier</text>
    <text x="1470" y="731" text-anchor="end" fill="#f7fbff" font-size="21" font-weight="700">planning + logic</text>

    <rect x="72" y="804" width="1456" height="128" rx="28" fill="#0e2032" stroke="#286b72"/>
    <text x="112" y="852" fill="#5ef2d0" font-size="20" font-weight="800" letter-spacing="3">OBSERVED REPAIR EFFECT</text>
    <text x="112" y="902" fill="#f7fbff" font-size="42" font-weight="800">13 helpful</text>
    <text x="354" y="902" class="muted" font-size="32">corrections</text>
    <text x="652" y="902" fill="#f7fbff" font-size="42" font-weight="800">0 harmful</text>
    <text x="865" y="902" class="muted" font-size="32">reversals</text>
    <text x="1482" y="858" text-anchor="end" fill="#91a1b8" font-size="18">36 fresh sealed problems</text>
    <text x="1482" y="893" text-anchor="end" fill="#91a1b8" font-size="18">development evidence only</text>
  </g>
</svg>
