<svg xmlns="http://www.w3.org/2000/svg" width="1200" height="630" viewBox="0 0 1200 630" role="img" aria-labelledby="title desc">
<title id="title">Recursive Orchestration Improver progress</title>
<desc id="desc">Panel-winner and direct-baseline accuracy across 18 fresh sealed rounds. A separate note reports the strongest replicated system.</desc>
<defs>
  <linearGradient id="bg" x1="0" y1="0" x2="1" y2="1"><stop stop-color="#07111f"/><stop offset="1" stop-color="#140b2d"/></linearGradient>
  <filter id="glow"><feGaussianBlur stdDeviation="5" result="b"/><feMerge><feMergeNode in="b"/><feMergeNode in="SourceGraphic"/></feMerge></filter>
</defs>
<style>
  .title{font:700 38px ui-sans-serif,system-ui;fill:#f8fafc} .subtitle{font:500 20px ui-sans-serif,system-ui;fill:#a5b4c8}
  .grid{stroke:#27344a;stroke-width:1} .axis{font:500 16px ui-monospace,SFMono-Regular,monospace;fill:#8291a8} .strong{fill:#dbeafe;font-weight:700}
  .line{fill:none;stroke-width:5;stroke-linejoin:round;stroke-linecap:round} .line.winner{stroke:#31d7f4;filter:url(#glow)} .line.direct{stroke:#f5a4ff;stroke-dasharray:10 10}
  .dot{stroke:#07111f;stroke-width:4} .dot.winner{fill:#31d7f4} .dot.direct{fill:#f5a4ff}
  .value{font:700 15px ui-monospace,SFMono-Regular,monospace} .value.winner{fill:#8cecff} .value.direct{fill:#ffc4ff}
  .legend{font:600 17px ui-sans-serif,system-ui;fill:#dce8f7} .note{font:500 15px ui-sans-serif,system-ui;fill:#8fa0b8}
</style>
<rect width="1200" height="630" rx="28" fill="url(#bg)"/>
<text x="70" y="68" class="title">Recursive Orchestration Improver</text>
<text x="70" y="104" class="subtitle">Fresh-panel outcomes vary. Replication is the durable signal.</text>
<line x1="760" y1="70" x2="810" y2="70" class="line winner"/><text x="826" y="76" class="legend">Panel winner</text>
<line x1="760" y1="105" x2="810" y2="105" class="line direct"/><text x="826" y="111" class="legend">One Luna Light call</text>
<line x1="115" y1="500.0" x2="1130" y2="500.0" class="grid"/><text x="93" y="506.0" text-anchor="end" class="axis">0%</text><line x1="115" y1="436.0" x2="1130" y2="436.0" class="grid"/><text x="93" y="442.0" text-anchor="end" class="axis">20%</text><line x1="115" y1="372.0" x2="1130" y2="372.0" class="grid"/><text x="93" y="378.0" text-anchor="end" class="axis">40%</text><line x1="115" y1="308.0" x2="1130" y2="308.0" class="grid"/><text x="93" y="314.0" text-anchor="end" class="axis">60%</text><line x1="115" y1="244.0" x2="1130" y2="244.0" class="grid"/><text x="93" y="250.0" text-anchor="end" class="axis">80%</text><line x1="115" y1="180.0" x2="1130" y2="180.0" class="grid"/><text x="93" y="186.0" text-anchor="end" class="axis">100%</text>
<polyline points="115.0,340.0 174.7,366.7 234.4,366.7 294.1,340.0 353.8,340.0 413.5,313.3 473.2,366.7 532.9,446.7 592.6,366.7 652.4,340.0 712.1,420.0 771.8,366.7 831.5,420.0 891.2,313.3 950.9,304.4 1010.6,420.0 1070.3,366.7 1130.0,286.7" class="line winner"/>
<polyline points="115.0,473.3 174.7,500.0 234.4,446.7 294.1,446.7 353.8,464.4 413.5,473.3 473.2,500.0 532.9,500.0 592.6,473.3 652.4,500.0 712.1,446.7 771.8,500.0 831.5,500.0 891.2,473.3 950.9,446.7 1010.6,473.3 1070.3,500.0 1130.0,393.3" class="line direct"/>
<circle cx="115.0" cy="340.0" r="7" class="dot winner"/><text x="115.0" y="325.0" text-anchor="middle" class="value winner">50.0%</text><circle cx="115.0" cy="473.3" r="7" class="dot direct"/><text x="115.0" y="458.3" text-anchor="middle" class="value direct">8.3%</text><circle cx="174.7" cy="366.7" r="7" class="dot winner"/><text x="174.7" y="351.7" text-anchor="middle" class="value winner">41.7%</text><circle cx="174.7" cy="500.0" r="7" class="dot direct"/><text x="174.7" y="485.0" text-anchor="middle" class="value direct">0.0%</text><circle cx="234.4" cy="366.7" r="7" class="dot winner"/><text x="234.4" y="351.7" text-anchor="middle" class="value winner">41.7%</text><circle cx="234.4" cy="446.7" r="7" class="dot direct"/><text x="234.4" y="431.7" text-anchor="middle" class="value direct">16.7%</text><circle cx="294.1" cy="340.0" r="7" class="dot winner"/><text x="294.1" y="325.0" text-anchor="middle" class="value winner">50.0%</text><circle cx="294.1" cy="446.7" r="7" class="dot direct"/><text x="294.1" y="431.7" text-anchor="middle" class="value direct">16.7%</text><circle cx="353.8" cy="340.0" r="7" class="dot winner"/><text x="353.8" y="325.0" text-anchor="middle" class="value winner">50.0%</text><circle cx="353.8" cy="464.4" r="7" class="dot direct"/><text x="353.8" y="449.4" text-anchor="middle" class="value direct">11.1%</text><circle cx="413.5" cy="313.3" r="7" class="dot winner"/><text x="413.5" y="298.3" text-anchor="middle" class="value winner">58.3%</text><circle cx="413.5" cy="473.3" r="7" class="dot direct"/><text x="413.5" y="458.3" text-anchor="middle" class="value direct">8.3%</text><circle cx="473.2" cy="366.7" r="7" class="dot winner"/><text x="473.2" y="351.7" text-anchor="middle" class="value winner">41.7%</text><circle cx="473.2" cy="500.0" r="7" class="dot direct"/><text x="473.2" y="485.0" text-anchor="middle" class="value direct">0.0%</text><circle cx="532.9" cy="446.7" r="7" class="dot winner"/><text x="532.9" y="431.7" text-anchor="middle" class="value winner">16.7%</text><circle cx="532.9" cy="500.0" r="7" class="dot direct"/><text x="532.9" y="485.0" text-anchor="middle" class="value direct">0.0%</text><circle cx="592.6" cy="366.7" r="7" class="dot winner"/><text x="592.6" y="351.7" text-anchor="middle" class="value winner">41.7%</text><circle cx="592.6" cy="473.3" r="7" class="dot direct"/><text x="592.6" y="458.3" text-anchor="middle" class="value direct">8.3%</text><circle cx="652.4" cy="340.0" r="7" class="dot winner"/><text x="652.4" y="325.0" text-anchor="middle" class="value winner">50.0%</text><circle cx="652.4" cy="500.0" r="7" class="dot direct"/><text x="652.4" y="485.0" text-anchor="middle" class="value direct">0.0%</text><circle cx="712.1" cy="420.0" r="7" class="dot winner"/><text x="712.1" y="405.0" text-anchor="middle" class="value winner">25.0%</text><circle cx="712.1" cy="446.7" r="7" class="dot direct"/><text x="712.1" y="431.7" text-anchor="middle" class="value direct">16.7%</text><circle cx="771.8" cy="366.7" r="7" class="dot winner"/><text x="771.8" y="351.7" text-anchor="middle" class="value winner">41.7%</text><circle cx="771.8" cy="500.0" r="7" class="dot direct"/><text x="771.8" y="485.0" text-anchor="middle" class="value direct">0.0%</text><circle cx="831.5" cy="420.0" r="7" class="dot winner"/><text x="831.5" y="405.0" text-anchor="middle" class="value winner">25.0%</text><circle cx="831.5" cy="500.0" r="7" class="dot direct"/><text x="831.5" y="485.0" text-anchor="middle" class="value direct">0.0%</text><circle cx="891.2" cy="313.3" r="7" class="dot winner"/><text x="891.2" y="298.3" text-anchor="middle" class="value winner">58.3%</text><circle cx="891.2" cy="473.3" r="7" class="dot direct"/><text x="891.2" y="458.3" text-anchor="middle" class="value direct">8.3%</text><circle cx="950.9" cy="304.4" r="7" class="dot winner"/><text x="950.9" y="289.4" text-anchor="middle" class="value winner">61.1%</text><circle cx="950.9" cy="446.7" r="7" class="dot direct"/><text x="950.9" y="431.7" text-anchor="middle" class="value direct">16.7%</text><circle cx="1010.6" cy="420.0" r="7" class="dot winner"/><text x="1010.6" y="405.0" text-anchor="middle" class="value winner">25.0%</text><circle cx="1010.6" cy="473.3" r="7" class="dot direct"/><text x="1010.6" y="458.3" text-anchor="middle" class="value direct">8.3%</text><circle cx="1070.3" cy="366.7" r="7" class="dot winner"/><text x="1070.3" y="351.7" text-anchor="middle" class="value winner">41.7%</text><circle cx="1070.3" cy="500.0" r="7" class="dot direct"/><text x="1070.3" y="485.0" text-anchor="middle" class="value direct">0.0%</text><circle cx="1130.0" cy="286.7" r="7" class="dot winner"/><text x="1130.0" y="271.7" text-anchor="middle" class="value winner">66.7%</text><circle cx="1130.0" cy="393.3" r="7" class="dot direct"/><text x="1130.0" y="378.3" text-anchor="middle" class="value direct">33.3%</text>
<text x="115.0" y="540" text-anchor="middle" class="axis strong">R1</text><text x="174.7" y="540" text-anchor="middle" class="axis strong">R2</text><text x="234.4" y="540" text-anchor="middle" class="axis strong">R3</text><text x="294.1" y="540" text-anchor="middle" class="axis strong">R4</text><text x="353.8" y="540" text-anchor="middle" class="axis strong">R5</text><text x="413.5" y="540" text-anchor="middle" class="axis strong">R6</text><text x="473.2" y="540" text-anchor="middle" class="axis strong">R7</text><text x="532.9" y="540" text-anchor="middle" class="axis strong">R8</text><text x="592.6" y="540" text-anchor="middle" class="axis strong">R9</text><text x="652.4" y="540" text-anchor="middle" class="axis strong">R10</text><text x="712.1" y="540" text-anchor="middle" class="axis strong">R11</text><text x="771.8" y="540" text-anchor="middle" class="axis strong">R12</text><text x="831.5" y="540" text-anchor="middle" class="axis strong">R13</text><text x="891.2" y="540" text-anchor="middle" class="axis strong">R14</text><text x="950.9" y="540" text-anchor="middle" class="axis strong">R15</text><text x="1010.6" y="540" text-anchor="middle" class="axis strong">R16</text><text x="1070.3" y="540" text-anchor="middle" class="axis strong">R17</text><text x="1130.0" y="540" text-anchor="middle" class="axis strong">R18</text>
<text x="70" y="570" class="note">Each round uses a fresh sealed panel. The line shows observed outcomes, not a training curve.</text>
<text x="70" y="598" class="note">Repeated leaders: 21/42 exact across 3 panels | 79/192 exact across 15 panels</text>
</svg>
