<svg xmlns="http://www.w3.org/2000/svg" width="1200" height="630" viewBox="0 0 1200 630" role="img" aria-labelledby="title desc">
<title id="title">Recursive Orchestration Improver progress</title>
<desc id="desc">Panel-winner and direct-baseline accuracy across 30 fresh sealed rounds. A separate note reports the strongest replicated system.</desc>
<defs>
  <linearGradient id="bg" x1="0" y1="0" x2="1" y2="1"><stop stop-color="#07111f"/><stop offset="1" stop-color="#140b2d"/></linearGradient>
  <filter id="glow"><feGaussianBlur stdDeviation="5" result="b"/><feMerge><feMergeNode in="b"/><feMergeNode in="SourceGraphic"/></feMerge></filter>
</defs>
<style>
  .title{font:700 38px ui-sans-serif,system-ui;fill:#f8fafc} .subtitle{font:500 20px ui-sans-serif,system-ui;fill:#a5b4c8}
  .grid{stroke:#27344a;stroke-width:1} .axis{font:500 16px ui-monospace,SFMono-Regular,monospace;fill:#8291a8} .strong{fill:#dbeafe;font-weight:700}
  .line{fill:none;stroke-width:5;stroke-linejoin:round;stroke-linecap:round} .line.winner{stroke:#31d7f4;filter:url(#glow)} .line.direct{stroke:#f5a4ff;stroke-dasharray:10 10}
  .dot{stroke:#07111f;stroke-width:4} .dot.winner{fill:#31d7f4} .dot.direct{fill:#f5a4ff}
  .value{font:700 15px ui-monospace,SFMono-Regular,monospace} .value.winner{fill:#8cecff} .value.direct{fill:#ffc4ff}
  .legend{font:600 17px ui-sans-serif,system-ui;fill:#dce8f7} .note{font:500 15px ui-sans-serif,system-ui;fill:#8fa0b8}
</style>
<rect width="1200" height="630" rx="28" fill="url(#bg)"/>
<text x="70" y="68" class="title">Recursive Orchestration Improver</text>
<text x="70" y="104" class="subtitle">Fresh-panel outcomes vary. Replication is the durable signal.</text>
<line x1="760" y1="70" x2="810" y2="70" class="line winner"/><text x="826" y="76" class="legend">Panel winner</text>
<line x1="760" y1="105" x2="810" y2="105" class="line direct"/><text x="826" y="111" class="legend">One Luna Light call</text>
<line x1="115" y1="500.0" x2="1130" y2="500.0" class="grid"/><text x="93" y="506.0" text-anchor="end" class="axis">0%</text><line x1="115" y1="436.0" x2="1130" y2="436.0" class="grid"/><text x="93" y="442.0" text-anchor="end" class="axis">20%</text><line x1="115" y1="372.0" x2="1130" y2="372.0" class="grid"/><text x="93" y="378.0" text-anchor="end" class="axis">40%</text><line x1="115" y1="308.0" x2="1130" y2="308.0" class="grid"/><text x="93" y="314.0" text-anchor="end" class="axis">60%</text><line x1="115" y1="244.0" x2="1130" y2="244.0" class="grid"/><text x="93" y="250.0" text-anchor="end" class="axis">80%</text><line x1="115" y1="180.0" x2="1130" y2="180.0" class="grid"/><text x="93" y="186.0" text-anchor="end" class="axis">100%</text>
<polyline points="115.0,340.0 150.0,366.7 185.0,366.7 220.0,340.0 255.0,340.0 290.0,313.3 325.0,366.7 360.0,446.7 395.0,366.7 430.0,340.0 465.0,420.0 500.0,366.7 535.0,420.0 570.0,313.3 605.0,304.4 640.0,420.0 675.0,366.7 710.0,286.7 745.0,313.3 780.0,393.3 815.0,286.7 850.0,313.3 885.0,393.3 920.0,340.0 955.0,322.2 990.0,340.0 1025.0,313.3 1060.0,340.0 1095.0,393.3 1130.0,375.6" class="line winner"/>
<polyline points="115.0,473.3 150.0,500.0 185.0,446.7 220.0,446.7 255.0,464.4 290.0,473.3 325.0,500.0 360.0,500.0 395.0,473.3 430.0,500.0 465.0,446.7 500.0,500.0 535.0,500.0 570.0,473.3 605.0,446.7 640.0,473.3 675.0,500.0 710.0,393.3 745.0,473.3 780.0,464.4 815.0,420.0 850.0,446.7 885.0,500.0 920.0,446.7 955.0,446.7 990.0,500.0 1025.0,500.0 1060.0,473.3 1095.0,473.3 1130.0,464.4" class="line direct"/>
<circle cx="115.0" cy="340.0" r="7" class="dot winner"/><text x="115.0" y="325.0" text-anchor="middle" class="value winner">50.0%</text><circle cx="115.0" cy="473.3" r="7" class="dot direct"/><text x="115.0" y="458.3" text-anchor="middle" class="value direct">8.3%</text><circle cx="150.0" cy="366.7" r="7" class="dot winner"/><text x="150.0" y="351.7" text-anchor="middle" class="value winner">41.7%</text><circle cx="150.0" cy="500.0" r="7" class="dot direct"/><text x="150.0" y="485.0" text-anchor="middle" class="value direct">0.0%</text><circle cx="185.0" cy="366.7" r="7" class="dot winner"/><text x="185.0" y="351.7" text-anchor="middle" class="value winner">41.7%</text><circle cx="185.0" cy="446.7" r="7" class="dot direct"/><text x="185.0" y="431.7" text-anchor="middle" class="value direct">16.7%</text><circle cx="220.0" cy="340.0" r="7" class="dot winner"/><text x="220.0" y="325.0" text-anchor="middle" class="value winner">50.0%</text><circle cx="220.0" cy="446.7" r="7" class="dot direct"/><text x="220.0" y="431.7" text-anchor="middle" class="value direct">16.7%</text><circle cx="255.0" cy="340.0" r="7" class="dot winner"/><text x="255.0" y="325.0" text-anchor="middle" class="value winner">50.0%</text><circle cx="255.0" cy="464.4" r="7" class="dot direct"/><text x="255.0" y="449.4" text-anchor="middle" class="value direct">11.1%</text><circle cx="290.0" cy="313.3" r="7" class="dot winner"/><text x="290.0" y="298.3" text-anchor="middle" class="value winner">58.3%</text><circle cx="290.0" cy="473.3" r="7" class="dot direct"/><text x="290.0" y="458.3" text-anchor="middle" class="value direct">8.3%</text><circle cx="325.0" cy="366.7" r="7" class="dot winner"/><text x="325.0" y="351.7" text-anchor="middle" class="value winner">41.7%</text><circle cx="325.0" cy="500.0" r="7" class="dot direct"/><text x="325.0" y="485.0" text-anchor="middle" class="value direct">0.0%</text><circle cx="360.0" cy="446.7" r="7" class="dot winner"/><text x="360.0" y="431.7" text-anchor="middle" class="value winner">16.7%</text><circle cx="360.0" cy="500.0" r="7" class="dot direct"/><text x="360.0" y="485.0" text-anchor="middle" class="value direct">0.0%</text><circle cx="395.0" cy="366.7" r="7" class="dot winner"/><text x="395.0" y="351.7" text-anchor="middle" class="value winner">41.7%</text><circle cx="395.0" cy="473.3" r="7" class="dot direct"/><text x="395.0" y="458.3" text-anchor="middle" class="value direct">8.3%</text><circle cx="430.0" cy="340.0" r="7" class="dot winner"/><text x="430.0" y="325.0" text-anchor="middle" class="value winner">50.0%</text><circle cx="430.0" cy="500.0" r="7" class="dot direct"/><text x="430.0" y="485.0" text-anchor="middle" class="value direct">0.0%</text><circle cx="465.0" cy="420.0" r="7" class="dot winner"/><text x="465.0" y="405.0" text-anchor="middle" class="value winner">25.0%</text><circle cx="465.0" cy="446.7" r="7" class="dot direct"/><text x="465.0" y="431.7" text-anchor="middle" class="value direct">16.7%</text><circle cx="500.0" cy="366.7" r="7" class="dot winner"/><text x="500.0" y="351.7" text-anchor="middle" class="value winner">41.7%</text><circle cx="500.0" cy="500.0" r="7" class="dot direct"/><text x="500.0" y="485.0" text-anchor="middle" class="value direct">0.0%</text><circle cx="535.0" cy="420.0" r="7" class="dot winner"/><text x="535.0" y="405.0" text-anchor="middle" class="value winner">25.0%</text><circle cx="535.0" cy="500.0" r="7" class="dot direct"/><text x="535.0" y="485.0" text-anchor="middle" class="value direct">0.0%</text><circle cx="570.0" cy="313.3" r="7" class="dot winner"/><text x="570.0" y="298.3" text-anchor="middle" class="value winner">58.3%</text><circle cx="570.0" cy="473.3" r="7" class="dot direct"/><text x="570.0" y="458.3" text-anchor="middle" class="value direct">8.3%</text><circle cx="605.0" cy="304.4" r="7" class="dot winner"/><text x="605.0" y="289.4" text-anchor="middle" class="value winner">61.1%</text><circle cx="605.0" cy="446.7" r="7" class="dot direct"/><text x="605.0" y="431.7" text-anchor="middle" class="value direct">16.7%</text><circle cx="640.0" cy="420.0" r="7" class="dot winner"/><text x="640.0" y="405.0" text-anchor="middle" class="value winner">25.0%</text><circle cx="640.0" cy="473.3" r="7" class="dot direct"/><text x="640.0" y="458.3" text-anchor="middle" class="value direct">8.3%</text><circle cx="675.0" cy="366.7" r="7" class="dot winner"/><text x="675.0" y="351.7" text-anchor="middle" class="value winner">41.7%</text><circle cx="675.0" cy="500.0" r="7" class="dot direct"/><text x="675.0" y="485.0" text-anchor="middle" class="value direct">0.0%</text><circle cx="710.0" cy="286.7" r="7" class="dot winner"/><text x="710.0" y="271.7" text-anchor="middle" class="value winner">66.7%</text><circle cx="710.0" cy="393.3" r="7" class="dot direct"/><text x="710.0" y="378.3" text-anchor="middle" class="value direct">33.3%</text><circle cx="745.0" cy="313.3" r="7" class="dot winner"/><text x="745.0" y="298.3" text-anchor="middle" class="value winner">58.3%</text><circle cx="745.0" cy="473.3" r="7" class="dot direct"/><text x="745.0" y="458.3" text-anchor="middle" class="value direct">8.3%</text><circle cx="780.0" cy="393.3" r="7" class="dot winner"/><text x="780.0" y="378.3" text-anchor="middle" class="value winner">33.3%</text><circle cx="780.0" cy="464.4" r="7" class="dot direct"/><text x="780.0" y="449.4" text-anchor="middle" class="value direct">11.1%</text><circle cx="815.0" cy="286.7" r="7" class="dot winner"/><text x="815.0" y="271.7" text-anchor="middle" class="value winner">66.7%</text><circle cx="815.0" cy="420.0" r="7" class="dot direct"/><text x="815.0" y="405.0" text-anchor="middle" class="value direct">25.0%</text><circle cx="850.0" cy="313.3" r="7" class="dot winner"/><text x="850.0" y="298.3" text-anchor="middle" class="value winner">58.3%</text><circle cx="850.0" cy="446.7" r="7" class="dot direct"/><text x="850.0" y="431.7" text-anchor="middle" class="value direct">16.7%</text><circle cx="885.0" cy="393.3" r="7" class="dot winner"/><text x="885.0" y="378.3" text-anchor="middle" class="value winner">33.3%</text><circle cx="885.0" cy="500.0" r="7" class="dot direct"/><text x="885.0" y="485.0" text-anchor="middle" class="value direct">0.0%</text><circle cx="920.0" cy="340.0" r="7" class="dot winner"/><text x="920.0" y="325.0" text-anchor="middle" class="value winner">50.0%</text><circle cx="920.0" cy="446.7" r="7" class="dot direct"/><text x="920.0" y="431.7" text-anchor="middle" class="value direct">16.7%</text><circle cx="955.0" cy="322.2" r="7" class="dot winner"/><text x="955.0" y="307.2" text-anchor="middle" class="value winner">55.6%</text><circle cx="955.0" cy="446.7" r="7" class="dot direct"/><text x="955.0" y="431.7" text-anchor="middle" class="value direct">16.7%</text><circle cx="990.0" cy="340.0" r="7" class="dot winner"/><text x="990.0" y="325.0" text-anchor="middle" class="value winner">50.0%</text><circle cx="990.0" cy="500.0" r="7" class="dot direct"/><text x="990.0" y="485.0" text-anchor="middle" class="value direct">0.0%</text><circle cx="1025.0" cy="313.3" r="7" class="dot winner"/><text x="1025.0" y="298.3" text-anchor="middle" class="value winner">58.3%</text><circle cx="1025.0" cy="500.0" r="7" class="dot direct"/><text x="1025.0" y="485.0" text-anchor="middle" class="value direct">0.0%</text><circle cx="1060.0" cy="340.0" r="7" class="dot winner"/><text x="1060.0" y="325.0" text-anchor="middle" class="value winner">50.0%</text><circle cx="1060.0" cy="473.3" r="7" class="dot direct"/><text x="1060.0" y="458.3" text-anchor="middle" class="value direct">8.3%</text><circle cx="1095.0" cy="393.3" r="7" class="dot winner"/><text x="1095.0" y="378.3" text-anchor="middle" class="value winner">33.3%</text><circle cx="1095.0" cy="473.3" r="7" class="dot direct"/><text x="1095.0" y="458.3" text-anchor="middle" class="value direct">8.3%</text><circle cx="1130.0" cy="375.6" r="7" class="dot winner"/><text x="1130.0" y="360.6" text-anchor="middle" class="value winner">38.9%</text><circle cx="1130.0" cy="464.4" r="7" class="dot direct"/><text x="1130.0" y="449.4" text-anchor="middle" class="value direct">11.1%</text>
<text x="115.0" y="540" text-anchor="middle" class="axis strong">R1</text><text x="150.0" y="540" text-anchor="middle" class="axis strong">R2</text><text x="185.0" y="540" text-anchor="middle" class="axis strong">R3</text><text x="220.0" y="540" text-anchor="middle" class="axis strong">R4</text><text x="255.0" y="540" text-anchor="middle" class="axis strong">R5</text><text x="290.0" y="540" text-anchor="middle" class="axis strong">R6</text><text x="325.0" y="540" text-anchor="middle" class="axis strong">R7</text><text x="360.0" y="540" text-anchor="middle" class="axis strong">R8</text><text x="395.0" y="540" text-anchor="middle" class="axis strong">R9</text><text x="430.0" y="540" text-anchor="middle" class="axis strong">R10</text><text x="465.0" y="540" text-anchor="middle" class="axis strong">R11</text><text x="500.0" y="540" text-anchor="middle" class="axis strong">R12</text><text x="535.0" y="540" text-anchor="middle" class="axis strong">R13</text><text x="570.0" y="540" text-anchor="middle" class="axis strong">R14</text><text x="605.0" y="540" text-anchor="middle" class="axis strong">R15</text><text x="640.0" y="540" text-anchor="middle" class="axis strong">R16</text><text x="675.0" y="540" text-anchor="middle" class="axis strong">R17</text><text x="710.0" y="540" text-anchor="middle" class="axis strong">R18</text><text x="745.0" y="540" text-anchor="middle" class="axis strong">R19</text><text x="780.0" y="540" text-anchor="middle" class="axis strong">R20</text><text x="815.0" y="540" text-anchor="middle" class="axis strong">R21</text><text x="850.0" y="540" text-anchor="middle" class="axis strong">R22</text><text x="885.0" y="540" text-anchor="middle" class="axis strong">R23</text><text x="920.0" y="540" text-anchor="middle" class="axis strong">R24</text><text x="955.0" y="540" text-anchor="middle" class="axis strong">R25</text><text x="990.0" y="540" text-anchor="middle" class="axis strong">R26</text><text x="1025.0" y="540" text-anchor="middle" class="axis strong">R27</text><text x="1060.0" y="540" text-anchor="middle" class="axis strong">R28</text><text x="1095.0" y="540" text-anchor="middle" class="axis strong">R29</text><text x="1130.0" y="540" text-anchor="middle" class="axis strong">R30</text>
<text x="70" y="570" class="note">Each round uses a fresh sealed panel. The line shows observed outcomes, not a training curve.</text>
<text x="70" y="598" class="note">Repeated leaders: 146/354 exact across 27 panels | 32/84 exact across 6 panels</text>
</svg>
