<svg xmlns="http://www.w3.org/2000/svg" width="1200" height="630" viewBox="0 0 1200 630" role="img" aria-labelledby="title desc">
<title id="title">Recursive Orchestration Improver progress</title>
<desc id="desc">Panel-winner and direct-baseline accuracy across 26 fresh sealed rounds. A separate note reports the strongest replicated system.</desc>
<defs>
  <linearGradient id="bg" x1="0" y1="0" x2="1" y2="1"><stop stop-color="#07111f"/><stop offset="1" stop-color="#140b2d"/></linearGradient>
  <filter id="glow"><feGaussianBlur stdDeviation="5" result="b"/><feMerge><feMergeNode in="b"/><feMergeNode in="SourceGraphic"/></feMerge></filter>
</defs>
<style>
  .title{font:700 38px ui-sans-serif,system-ui;fill:#f8fafc} .subtitle{font:500 20px ui-sans-serif,system-ui;fill:#a5b4c8}
  .grid{stroke:#27344a;stroke-width:1} .axis{font:500 16px ui-monospace,SFMono-Regular,monospace;fill:#8291a8} .strong{fill:#dbeafe;font-weight:700}
  .line{fill:none;stroke-width:5;stroke-linejoin:round;stroke-linecap:round} .line.winner{stroke:#31d7f4;filter:url(#glow)} .line.direct{stroke:#f5a4ff;stroke-dasharray:10 10}
  .dot{stroke:#07111f;stroke-width:4} .dot.winner{fill:#31d7f4} .dot.direct{fill:#f5a4ff}
  .value{font:700 15px ui-monospace,SFMono-Regular,monospace} .value.winner{fill:#8cecff} .value.direct{fill:#ffc4ff}
  .legend{font:600 17px ui-sans-serif,system-ui;fill:#dce8f7} .note{font:500 15px ui-sans-serif,system-ui;fill:#8fa0b8}
</style>
<rect width="1200" height="630" rx="28" fill="url(#bg)"/>
<text x="70" y="68" class="title">Recursive Orchestration Improver</text>
<text x="70" y="104" class="subtitle">Fresh-panel outcomes vary. Replication is the durable signal.</text>
<line x1="760" y1="70" x2="810" y2="70" class="line winner"/><text x="826" y="76" class="legend">Panel winner</text>
<line x1="760" y1="105" x2="810" y2="105" class="line direct"/><text x="826" y="111" class="legend">One Luna Light call</text>
<line x1="115" y1="500.0" x2="1130" y2="500.0" class="grid"/><text x="93" y="506.0" text-anchor="end" class="axis">0%</text><line x1="115" y1="436.0" x2="1130" y2="436.0" class="grid"/><text x="93" y="442.0" text-anchor="end" class="axis">20%</text><line x1="115" y1="372.0" x2="1130" y2="372.0" class="grid"/><text x="93" y="378.0" text-anchor="end" class="axis">40%</text><line x1="115" y1="308.0" x2="1130" y2="308.0" class="grid"/><text x="93" y="314.0" text-anchor="end" class="axis">60%</text><line x1="115" y1="244.0" x2="1130" y2="244.0" class="grid"/><text x="93" y="250.0" text-anchor="end" class="axis">80%</text><line x1="115" y1="180.0" x2="1130" y2="180.0" class="grid"/><text x="93" y="186.0" text-anchor="end" class="axis">100%</text>
<polyline points="115.0,340.0 155.6,366.7 196.2,366.7 236.8,340.0 277.4,340.0 318.0,313.3 358.6,366.7 399.2,446.7 439.8,366.7 480.4,340.0 521.0,420.0 561.6,366.7 602.2,420.0 642.8,313.3 683.4,304.4 724.0,420.0 764.6,366.7 805.2,286.7 845.8,313.3 886.4,393.3 927.0,286.7 967.6,313.3 1008.2,393.3 1048.8,340.0 1089.4,322.2 1130.0,340.0" class="line winner"/>
<polyline points="115.0,473.3 155.6,500.0 196.2,446.7 236.8,446.7 277.4,464.4 318.0,473.3 358.6,500.0 399.2,500.0 439.8,473.3 480.4,500.0 521.0,446.7 561.6,500.0 602.2,500.0 642.8,473.3 683.4,446.7 724.0,473.3 764.6,500.0 805.2,393.3 845.8,473.3 886.4,464.4 927.0,420.0 967.6,446.7 1008.2,500.0 1048.8,446.7 1089.4,446.7 1130.0,500.0" class="line direct"/>
<circle cx="115.0" cy="340.0" r="7" class="dot winner"/><text x="115.0" y="325.0" text-anchor="middle" class="value winner">50.0%</text><circle cx="115.0" cy="473.3" r="7" class="dot direct"/><text x="115.0" y="458.3" text-anchor="middle" class="value direct">8.3%</text><circle cx="155.6" cy="366.7" r="7" class="dot winner"/><text x="155.6" y="351.7" text-anchor="middle" class="value winner">41.7%</text><circle cx="155.6" cy="500.0" r="7" class="dot direct"/><text x="155.6" y="485.0" text-anchor="middle" class="value direct">0.0%</text><circle cx="196.2" cy="366.7" r="7" class="dot winner"/><text x="196.2" y="351.7" text-anchor="middle" class="value winner">41.7%</text><circle cx="196.2" cy="446.7" r="7" class="dot direct"/><text x="196.2" y="431.7" text-anchor="middle" class="value direct">16.7%</text><circle cx="236.8" cy="340.0" r="7" class="dot winner"/><text x="236.8" y="325.0" text-anchor="middle" class="value winner">50.0%</text><circle cx="236.8" cy="446.7" r="7" class="dot direct"/><text x="236.8" y="431.7" text-anchor="middle" class="value direct">16.7%</text><circle cx="277.4" cy="340.0" r="7" class="dot winner"/><text x="277.4" y="325.0" text-anchor="middle" class="value winner">50.0%</text><circle cx="277.4" cy="464.4" r="7" class="dot direct"/><text x="277.4" y="449.4" text-anchor="middle" class="value direct">11.1%</text><circle cx="318.0" cy="313.3" r="7" class="dot winner"/><text x="318.0" y="298.3" text-anchor="middle" class="value winner">58.3%</text><circle cx="318.0" cy="473.3" r="7" class="dot direct"/><text x="318.0" y="458.3" text-anchor="middle" class="value direct">8.3%</text><circle cx="358.6" cy="366.7" r="7" class="dot winner"/><text x="358.6" y="351.7" text-anchor="middle" class="value winner">41.7%</text><circle cx="358.6" cy="500.0" r="7" class="dot direct"/><text x="358.6" y="485.0" text-anchor="middle" class="value direct">0.0%</text><circle cx="399.2" cy="446.7" r="7" class="dot winner"/><text x="399.2" y="431.7" text-anchor="middle" class="value winner">16.7%</text><circle cx="399.2" cy="500.0" r="7" class="dot direct"/><text x="399.2" y="485.0" text-anchor="middle" class="value direct">0.0%</text><circle cx="439.8" cy="366.7" r="7" class="dot winner"/><text x="439.8" y="351.7" text-anchor="middle" class="value winner">41.7%</text><circle cx="439.8" cy="473.3" r="7" class="dot direct"/><text x="439.8" y="458.3" text-anchor="middle" class="value direct">8.3%</text><circle cx="480.4" cy="340.0" r="7" class="dot winner"/><text x="480.4" y="325.0" text-anchor="middle" class="value winner">50.0%</text><circle cx="480.4" cy="500.0" r="7" class="dot direct"/><text x="480.4" y="485.0" text-anchor="middle" class="value direct">0.0%</text><circle cx="521.0" cy="420.0" r="7" class="dot winner"/><text x="521.0" y="405.0" text-anchor="middle" class="value winner">25.0%</text><circle cx="521.0" cy="446.7" r="7" class="dot direct"/><text x="521.0" y="431.7" text-anchor="middle" class="value direct">16.7%</text><circle cx="561.6" cy="366.7" r="7" class="dot winner"/><text x="561.6" y="351.7" text-anchor="middle" class="value winner">41.7%</text><circle cx="561.6" cy="500.0" r="7" class="dot direct"/><text x="561.6" y="485.0" text-anchor="middle" class="value direct">0.0%</text><circle cx="602.2" cy="420.0" r="7" class="dot winner"/><text x="602.2" y="405.0" text-anchor="middle" class="value winner">25.0%</text><circle cx="602.2" cy="500.0" r="7" class="dot direct"/><text x="602.2" y="485.0" text-anchor="middle" class="value direct">0.0%</text><circle cx="642.8" cy="313.3" r="7" class="dot winner"/><text x="642.8" y="298.3" text-anchor="middle" class="value winner">58.3%</text><circle cx="642.8" cy="473.3" r="7" class="dot direct"/><text x="642.8" y="458.3" text-anchor="middle" class="value direct">8.3%</text><circle cx="683.4" cy="304.4" r="7" class="dot winner"/><text x="683.4" y="289.4" text-anchor="middle" class="value winner">61.1%</text><circle cx="683.4" cy="446.7" r="7" class="dot direct"/><text x="683.4" y="431.7" text-anchor="middle" class="value direct">16.7%</text><circle cx="724.0" cy="420.0" r="7" class="dot winner"/><text x="724.0" y="405.0" text-anchor="middle" class="value winner">25.0%</text><circle cx="724.0" cy="473.3" r="7" class="dot direct"/><text x="724.0" y="458.3" text-anchor="middle" class="value direct">8.3%</text><circle cx="764.6" cy="366.7" r="7" class="dot winner"/><text x="764.6" y="351.7" text-anchor="middle" class="value winner">41.7%</text><circle cx="764.6" cy="500.0" r="7" class="dot direct"/><text x="764.6" y="485.0" text-anchor="middle" class="value direct">0.0%</text><circle cx="805.2" cy="286.7" r="7" class="dot winner"/><text x="805.2" y="271.7" text-anchor="middle" class="value winner">66.7%</text><circle cx="805.2" cy="393.3" r="7" class="dot direct"/><text x="805.2" y="378.3" text-anchor="middle" class="value direct">33.3%</text><circle cx="845.8" cy="313.3" r="7" class="dot winner"/><text x="845.8" y="298.3" text-anchor="middle" class="value winner">58.3%</text><circle cx="845.8" cy="473.3" r="7" class="dot direct"/><text x="845.8" y="458.3" text-anchor="middle" class="value direct">8.3%</text><circle cx="886.4" cy="393.3" r="7" class="dot winner"/><text x="886.4" y="378.3" text-anchor="middle" class="value winner">33.3%</text><circle cx="886.4" cy="464.4" r="7" class="dot direct"/><text x="886.4" y="449.4" text-anchor="middle" class="value direct">11.1%</text><circle cx="927.0" cy="286.7" r="7" class="dot winner"/><text x="927.0" y="271.7" text-anchor="middle" class="value winner">66.7%</text><circle cx="927.0" cy="420.0" r="7" class="dot direct"/><text x="927.0" y="405.0" text-anchor="middle" class="value direct">25.0%</text><circle cx="967.6" cy="313.3" r="7" class="dot winner"/><text x="967.6" y="298.3" text-anchor="middle" class="value winner">58.3%</text><circle cx="967.6" cy="446.7" r="7" class="dot direct"/><text x="967.6" y="431.7" text-anchor="middle" class="value direct">16.7%</text><circle cx="1008.2" cy="393.3" r="7" class="dot winner"/><text x="1008.2" y="378.3" text-anchor="middle" class="value winner">33.3%</text><circle cx="1008.2" cy="500.0" r="7" class="dot direct"/><text x="1008.2" y="485.0" text-anchor="middle" class="value direct">0.0%</text><circle cx="1048.8" cy="340.0" r="7" class="dot winner"/><text x="1048.8" y="325.0" text-anchor="middle" class="value winner">50.0%</text><circle cx="1048.8" cy="446.7" r="7" class="dot direct"/><text x="1048.8" y="431.7" text-anchor="middle" class="value direct">16.7%</text><circle cx="1089.4" cy="322.2" r="7" class="dot winner"/><text x="1089.4" y="307.2" text-anchor="middle" class="value winner">55.6%</text><circle cx="1089.4" cy="446.7" r="7" class="dot direct"/><text x="1089.4" y="431.7" text-anchor="middle" class="value direct">16.7%</text><circle cx="1130.0" cy="340.0" r="7" class="dot winner"/><text x="1130.0" y="325.0" text-anchor="middle" class="value winner">50.0%</text><circle cx="1130.0" cy="500.0" r="7" class="dot direct"/><text x="1130.0" y="485.0" text-anchor="middle" class="value direct">0.0%</text>
<text x="115.0" y="540" text-anchor="middle" class="axis strong">R1</text><text x="155.6" y="540" text-anchor="middle" class="axis strong">R2</text><text x="196.2" y="540" text-anchor="middle" class="axis strong">R3</text><text x="236.8" y="540" text-anchor="middle" class="axis strong">R4</text><text x="277.4" y="540" text-anchor="middle" class="axis strong">R5</text><text x="318.0" y="540" text-anchor="middle" class="axis strong">R6</text><text x="358.6" y="540" text-anchor="middle" class="axis strong">R7</text><text x="399.2" y="540" text-anchor="middle" class="axis strong">R8</text><text x="439.8" y="540" text-anchor="middle" class="axis strong">R9</text><text x="480.4" y="540" text-anchor="middle" class="axis strong">R10</text><text x="521.0" y="540" text-anchor="middle" class="axis strong">R11</text><text x="561.6" y="540" text-anchor="middle" class="axis strong">R12</text><text x="602.2" y="540" text-anchor="middle" class="axis strong">R13</text><text x="642.8" y="540" text-anchor="middle" class="axis strong">R14</text><text x="683.4" y="540" text-anchor="middle" class="axis strong">R15</text><text x="724.0" y="540" text-anchor="middle" class="axis strong">R16</text><text x="764.6" y="540" text-anchor="middle" class="axis strong">R17</text><text x="805.2" y="540" text-anchor="middle" class="axis strong">R18</text><text x="845.8" y="540" text-anchor="middle" class="axis strong">R19</text><text x="886.4" y="540" text-anchor="middle" class="axis strong">R20</text><text x="927.0" y="540" text-anchor="middle" class="axis strong">R21</text><text x="967.6" y="540" text-anchor="middle" class="axis strong">R22</text><text x="1008.2" y="540" text-anchor="middle" class="axis strong">R23</text><text x="1048.8" y="540" text-anchor="middle" class="axis strong">R24</text><text x="1089.4" y="540" text-anchor="middle" class="axis strong">R25</text><text x="1130.0" y="540" text-anchor="middle" class="axis strong">R26</text>
<text x="70" y="570" class="note">Each round uses a fresh sealed panel. The line shows observed outcomes, not a training curve.</text>
<text x="70" y="598" class="note">Repeated leaders: 129/300 exact across 23 panels | 12/30 exact across 2 panels</text>
</svg>
