<svg xmlns="http://www.w3.org/2000/svg" width="1200" height="630" viewBox="0 0 1200 630" role="img" aria-labelledby="title desc">
<title id="title">Recursive Orchestration Improver progress</title>
<desc id="desc">Panel-winner and direct-baseline accuracy across 23 fresh sealed rounds. A separate note reports the strongest replicated system.</desc>
<defs>
  <linearGradient id="bg" x1="0" y1="0" x2="1" y2="1"><stop stop-color="#07111f"/><stop offset="1" stop-color="#140b2d"/></linearGradient>
  <filter id="glow"><feGaussianBlur stdDeviation="5" result="b"/><feMerge><feMergeNode in="b"/><feMergeNode in="SourceGraphic"/></feMerge></filter>
</defs>
<style>
  .title{font:700 38px ui-sans-serif,system-ui;fill:#f8fafc} .subtitle{font:500 20px ui-sans-serif,system-ui;fill:#a5b4c8}
  .grid{stroke:#27344a;stroke-width:1} .axis{font:500 16px ui-monospace,SFMono-Regular,monospace;fill:#8291a8} .strong{fill:#dbeafe;font-weight:700}
  .line{fill:none;stroke-width:5;stroke-linejoin:round;stroke-linecap:round} .line.winner{stroke:#31d7f4;filter:url(#glow)} .line.direct{stroke:#f5a4ff;stroke-dasharray:10 10}
  .dot{stroke:#07111f;stroke-width:4} .dot.winner{fill:#31d7f4} .dot.direct{fill:#f5a4ff}
  .value{font:700 15px ui-monospace,SFMono-Regular,monospace} .value.winner{fill:#8cecff} .value.direct{fill:#ffc4ff}
  .legend{font:600 17px ui-sans-serif,system-ui;fill:#dce8f7} .note{font:500 15px ui-sans-serif,system-ui;fill:#8fa0b8}
</style>
<rect width="1200" height="630" rx="28" fill="url(#bg)"/>
<text x="70" y="68" class="title">Recursive Orchestration Improver</text>
<text x="70" y="104" class="subtitle">Fresh-panel outcomes vary. Replication is the durable signal.</text>
<line x1="760" y1="70" x2="810" y2="70" class="line winner"/><text x="826" y="76" class="legend">Panel winner</text>
<line x1="760" y1="105" x2="810" y2="105" class="line direct"/><text x="826" y="111" class="legend">One Luna Light call</text>
<line x1="115" y1="500.0" x2="1130" y2="500.0" class="grid"/><text x="93" y="506.0" text-anchor="end" class="axis">0%</text><line x1="115" y1="436.0" x2="1130" y2="436.0" class="grid"/><text x="93" y="442.0" text-anchor="end" class="axis">20%</text><line x1="115" y1="372.0" x2="1130" y2="372.0" class="grid"/><text x="93" y="378.0" text-anchor="end" class="axis">40%</text><line x1="115" y1="308.0" x2="1130" y2="308.0" class="grid"/><text x="93" y="314.0" text-anchor="end" class="axis">60%</text><line x1="115" y1="244.0" x2="1130" y2="244.0" class="grid"/><text x="93" y="250.0" text-anchor="end" class="axis">80%</text><line x1="115" y1="180.0" x2="1130" y2="180.0" class="grid"/><text x="93" y="186.0" text-anchor="end" class="axis">100%</text>
<polyline points="115.0,340.0 161.1,366.7 207.3,366.7 253.4,340.0 299.5,340.0 345.7,313.3 391.8,366.7 438.0,446.7 484.1,366.7 530.2,340.0 576.4,420.0 622.5,366.7 668.6,420.0 714.8,313.3 760.9,304.4 807.0,420.0 853.2,366.7 899.3,286.7 945.5,313.3 991.6,393.3 1037.7,286.7 1083.9,313.3 1130.0,393.3" class="line winner"/>
<polyline points="115.0,473.3 161.1,500.0 207.3,446.7 253.4,446.7 299.5,464.4 345.7,473.3 391.8,500.0 438.0,500.0 484.1,473.3 530.2,500.0 576.4,446.7 622.5,500.0 668.6,500.0 714.8,473.3 760.9,446.7 807.0,473.3 853.2,500.0 899.3,393.3 945.5,473.3 991.6,464.4 1037.7,420.0 1083.9,446.7 1130.0,500.0" class="line direct"/>
<circle cx="115.0" cy="340.0" r="7" class="dot winner"/><text x="115.0" y="325.0" text-anchor="middle" class="value winner">50.0%</text><circle cx="115.0" cy="473.3" r="7" class="dot direct"/><text x="115.0" y="458.3" text-anchor="middle" class="value direct">8.3%</text><circle cx="161.1" cy="366.7" r="7" class="dot winner"/><text x="161.1" y="351.7" text-anchor="middle" class="value winner">41.7%</text><circle cx="161.1" cy="500.0" r="7" class="dot direct"/><text x="161.1" y="485.0" text-anchor="middle" class="value direct">0.0%</text><circle cx="207.3" cy="366.7" r="7" class="dot winner"/><text x="207.3" y="351.7" text-anchor="middle" class="value winner">41.7%</text><circle cx="207.3" cy="446.7" r="7" class="dot direct"/><text x="207.3" y="431.7" text-anchor="middle" class="value direct">16.7%</text><circle cx="253.4" cy="340.0" r="7" class="dot winner"/><text x="253.4" y="325.0" text-anchor="middle" class="value winner">50.0%</text><circle cx="253.4" cy="446.7" r="7" class="dot direct"/><text x="253.4" y="431.7" text-anchor="middle" class="value direct">16.7%</text><circle cx="299.5" cy="340.0" r="7" class="dot winner"/><text x="299.5" y="325.0" text-anchor="middle" class="value winner">50.0%</text><circle cx="299.5" cy="464.4" r="7" class="dot direct"/><text x="299.5" y="449.4" text-anchor="middle" class="value direct">11.1%</text><circle cx="345.7" cy="313.3" r="7" class="dot winner"/><text x="345.7" y="298.3" text-anchor="middle" class="value winner">58.3%</text><circle cx="345.7" cy="473.3" r="7" class="dot direct"/><text x="345.7" y="458.3" text-anchor="middle" class="value direct">8.3%</text><circle cx="391.8" cy="366.7" r="7" class="dot winner"/><text x="391.8" y="351.7" text-anchor="middle" class="value winner">41.7%</text><circle cx="391.8" cy="500.0" r="7" class="dot direct"/><text x="391.8" y="485.0" text-anchor="middle" class="value direct">0.0%</text><circle cx="438.0" cy="446.7" r="7" class="dot winner"/><text x="438.0" y="431.7" text-anchor="middle" class="value winner">16.7%</text><circle cx="438.0" cy="500.0" r="7" class="dot direct"/><text x="438.0" y="485.0" text-anchor="middle" class="value direct">0.0%</text><circle cx="484.1" cy="366.7" r="7" class="dot winner"/><text x="484.1" y="351.7" text-anchor="middle" class="value winner">41.7%</text><circle cx="484.1" cy="473.3" r="7" class="dot direct"/><text x="484.1" y="458.3" text-anchor="middle" class="value direct">8.3%</text><circle cx="530.2" cy="340.0" r="7" class="dot winner"/><text x="530.2" y="325.0" text-anchor="middle" class="value winner">50.0%</text><circle cx="530.2" cy="500.0" r="7" class="dot direct"/><text x="530.2" y="485.0" text-anchor="middle" class="value direct">0.0%</text><circle cx="576.4" cy="420.0" r="7" class="dot winner"/><text x="576.4" y="405.0" text-anchor="middle" class="value winner">25.0%</text><circle cx="576.4" cy="446.7" r="7" class="dot direct"/><text x="576.4" y="431.7" text-anchor="middle" class="value direct">16.7%</text><circle cx="622.5" cy="366.7" r="7" class="dot winner"/><text x="622.5" y="351.7" text-anchor="middle" class="value winner">41.7%</text><circle cx="622.5" cy="500.0" r="7" class="dot direct"/><text x="622.5" y="485.0" text-anchor="middle" class="value direct">0.0%</text><circle cx="668.6" cy="420.0" r="7" class="dot winner"/><text x="668.6" y="405.0" text-anchor="middle" class="value winner">25.0%</text><circle cx="668.6" cy="500.0" r="7" class="dot direct"/><text x="668.6" y="485.0" text-anchor="middle" class="value direct">0.0%</text><circle cx="714.8" cy="313.3" r="7" class="dot winner"/><text x="714.8" y="298.3" text-anchor="middle" class="value winner">58.3%</text><circle cx="714.8" cy="473.3" r="7" class="dot direct"/><text x="714.8" y="458.3" text-anchor="middle" class="value direct">8.3%</text><circle cx="760.9" cy="304.4" r="7" class="dot winner"/><text x="760.9" y="289.4" text-anchor="middle" class="value winner">61.1%</text><circle cx="760.9" cy="446.7" r="7" class="dot direct"/><text x="760.9" y="431.7" text-anchor="middle" class="value direct">16.7%</text><circle cx="807.0" cy="420.0" r="7" class="dot winner"/><text x="807.0" y="405.0" text-anchor="middle" class="value winner">25.0%</text><circle cx="807.0" cy="473.3" r="7" class="dot direct"/><text x="807.0" y="458.3" text-anchor="middle" class="value direct">8.3%</text><circle cx="853.2" cy="366.7" r="7" class="dot winner"/><text x="853.2" y="351.7" text-anchor="middle" class="value winner">41.7%</text><circle cx="853.2" cy="500.0" r="7" class="dot direct"/><text x="853.2" y="485.0" text-anchor="middle" class="value direct">0.0%</text><circle cx="899.3" cy="286.7" r="7" class="dot winner"/><text x="899.3" y="271.7" text-anchor="middle" class="value winner">66.7%</text><circle cx="899.3" cy="393.3" r="7" class="dot direct"/><text x="899.3" y="378.3" text-anchor="middle" class="value direct">33.3%</text><circle cx="945.5" cy="313.3" r="7" class="dot winner"/><text x="945.5" y="298.3" text-anchor="middle" class="value winner">58.3%</text><circle cx="945.5" cy="473.3" r="7" class="dot direct"/><text x="945.5" y="458.3" text-anchor="middle" class="value direct">8.3%</text><circle cx="991.6" cy="393.3" r="7" class="dot winner"/><text x="991.6" y="378.3" text-anchor="middle" class="value winner">33.3%</text><circle cx="991.6" cy="464.4" r="7" class="dot direct"/><text x="991.6" y="449.4" text-anchor="middle" class="value direct">11.1%</text><circle cx="1037.7" cy="286.7" r="7" class="dot winner"/><text x="1037.7" y="271.7" text-anchor="middle" class="value winner">66.7%</text><circle cx="1037.7" cy="420.0" r="7" class="dot direct"/><text x="1037.7" y="405.0" text-anchor="middle" class="value direct">25.0%</text><circle cx="1083.9" cy="313.3" r="7" class="dot winner"/><text x="1083.9" y="298.3" text-anchor="middle" class="value winner">58.3%</text><circle cx="1083.9" cy="446.7" r="7" class="dot direct"/><text x="1083.9" y="431.7" text-anchor="middle" class="value direct">16.7%</text><circle cx="1130.0" cy="393.3" r="7" class="dot winner"/><text x="1130.0" y="378.3" text-anchor="middle" class="value winner">33.3%</text><circle cx="1130.0" cy="500.0" r="7" class="dot direct"/><text x="1130.0" y="485.0" text-anchor="middle" class="value direct">0.0%</text>
<text x="115.0" y="540" text-anchor="middle" class="axis strong">R1</text><text x="161.1" y="540" text-anchor="middle" class="axis strong">R2</text><text x="207.3" y="540" text-anchor="middle" class="axis strong">R3</text><text x="253.4" y="540" text-anchor="middle" class="axis strong">R4</text><text x="299.5" y="540" text-anchor="middle" class="axis strong">R5</text><text x="345.7" y="540" text-anchor="middle" class="axis strong">R6</text><text x="391.8" y="540" text-anchor="middle" class="axis strong">R7</text><text x="438.0" y="540" text-anchor="middle" class="axis strong">R8</text><text x="484.1" y="540" text-anchor="middle" class="axis strong">R9</text><text x="530.2" y="540" text-anchor="middle" class="axis strong">R10</text><text x="576.4" y="540" text-anchor="middle" class="axis strong">R11</text><text x="622.5" y="540" text-anchor="middle" class="axis strong">R12</text><text x="668.6" y="540" text-anchor="middle" class="axis strong">R13</text><text x="714.8" y="540" text-anchor="middle" class="axis strong">R14</text><text x="760.9" y="540" text-anchor="middle" class="axis strong">R15</text><text x="807.0" y="540" text-anchor="middle" class="axis strong">R16</text><text x="853.2" y="540" text-anchor="middle" class="axis strong">R17</text><text x="899.3" y="540" text-anchor="middle" class="axis strong">R18</text><text x="945.5" y="540" text-anchor="middle" class="axis strong">R19</text><text x="991.6" y="540" text-anchor="middle" class="axis strong">R20</text><text x="1037.7" y="540" text-anchor="middle" class="axis strong">R21</text><text x="1083.9" y="540" text-anchor="middle" class="axis strong">R22</text><text x="1130.0" y="540" text-anchor="middle" class="axis strong">R23</text>
<text x="70" y="570" class="note">Each round uses a fresh sealed panel. The line shows observed outcomes, not a training curve.</text>
<text x="70" y="598" class="note">Repeated leaders: 108/258 exact across 20 panels | 40/102 exact across 8 panels</text>
</svg>
