<svg xmlns="http://www.w3.org/2000/svg" width="1200" height="630" viewBox="0 0 1200 630" role="img" aria-labelledby="title desc">
<title id="title">Recursive Orchestration Improver progress</title>
<desc id="desc">Panel-winner and direct-baseline accuracy across 24 fresh sealed rounds. A separate note reports the strongest replicated system.</desc>
<defs>
  <linearGradient id="bg" x1="0" y1="0" x2="1" y2="1"><stop stop-color="#07111f"/><stop offset="1" stop-color="#140b2d"/></linearGradient>
  <filter id="glow"><feGaussianBlur stdDeviation="5" result="b"/><feMerge><feMergeNode in="b"/><feMergeNode in="SourceGraphic"/></feMerge></filter>
</defs>
<style>
  .title{font:700 38px ui-sans-serif,system-ui;fill:#f8fafc} .subtitle{font:500 20px ui-sans-serif,system-ui;fill:#a5b4c8}
  .grid{stroke:#27344a;stroke-width:1} .axis{font:500 16px ui-monospace,SFMono-Regular,monospace;fill:#8291a8} .strong{fill:#dbeafe;font-weight:700}
  .line{fill:none;stroke-width:5;stroke-linejoin:round;stroke-linecap:round} .line.winner{stroke:#31d7f4;filter:url(#glow)} .line.direct{stroke:#f5a4ff;stroke-dasharray:10 10}
  .dot{stroke:#07111f;stroke-width:4} .dot.winner{fill:#31d7f4} .dot.direct{fill:#f5a4ff}
  .value{font:700 15px ui-monospace,SFMono-Regular,monospace} .value.winner{fill:#8cecff} .value.direct{fill:#ffc4ff}
  .legend{font:600 17px ui-sans-serif,system-ui;fill:#dce8f7} .note{font:500 15px ui-sans-serif,system-ui;fill:#8fa0b8}
</style>
<rect width="1200" height="630" rx="28" fill="url(#bg)"/>
<text x="70" y="68" class="title">Recursive Orchestration Improver</text>
<text x="70" y="104" class="subtitle">Fresh-panel outcomes vary. Replication is the durable signal.</text>
<line x1="760" y1="70" x2="810" y2="70" class="line winner"/><text x="826" y="76" class="legend">Panel winner</text>
<line x1="760" y1="105" x2="810" y2="105" class="line direct"/><text x="826" y="111" class="legend">One Luna Light call</text>
<line x1="115" y1="500.0" x2="1130" y2="500.0" class="grid"/><text x="93" y="506.0" text-anchor="end" class="axis">0%</text><line x1="115" y1="436.0" x2="1130" y2="436.0" class="grid"/><text x="93" y="442.0" text-anchor="end" class="axis">20%</text><line x1="115" y1="372.0" x2="1130" y2="372.0" class="grid"/><text x="93" y="378.0" text-anchor="end" class="axis">40%</text><line x1="115" y1="308.0" x2="1130" y2="308.0" class="grid"/><text x="93" y="314.0" text-anchor="end" class="axis">60%</text><line x1="115" y1="244.0" x2="1130" y2="244.0" class="grid"/><text x="93" y="250.0" text-anchor="end" class="axis">80%</text><line x1="115" y1="180.0" x2="1130" y2="180.0" class="grid"/><text x="93" y="186.0" text-anchor="end" class="axis">100%</text>
<polyline points="115.0,340.0 159.1,366.7 203.3,366.7 247.4,340.0 291.5,340.0 335.7,313.3 379.8,366.7 423.9,446.7 468.0,366.7 512.2,340.0 556.3,420.0 600.4,366.7 644.6,420.0 688.7,313.3 732.8,304.4 777.0,420.0 821.1,366.7 865.2,286.7 909.3,313.3 953.5,393.3 997.6,286.7 1041.7,313.3 1085.9,393.3 1130.0,340.0" class="line winner"/>
<polyline points="115.0,473.3 159.1,500.0 203.3,446.7 247.4,446.7 291.5,464.4 335.7,473.3 379.8,500.0 423.9,500.0 468.0,473.3 512.2,500.0 556.3,446.7 600.4,500.0 644.6,500.0 688.7,473.3 732.8,446.7 777.0,473.3 821.1,500.0 865.2,393.3 909.3,473.3 953.5,464.4 997.6,420.0 1041.7,446.7 1085.9,500.0 1130.0,446.7" class="line direct"/>
<circle cx="115.0" cy="340.0" r="7" class="dot winner"/><text x="115.0" y="325.0" text-anchor="middle" class="value winner">50.0%</text><circle cx="115.0" cy="473.3" r="7" class="dot direct"/><text x="115.0" y="458.3" text-anchor="middle" class="value direct">8.3%</text><circle cx="159.1" cy="366.7" r="7" class="dot winner"/><text x="159.1" y="351.7" text-anchor="middle" class="value winner">41.7%</text><circle cx="159.1" cy="500.0" r="7" class="dot direct"/><text x="159.1" y="485.0" text-anchor="middle" class="value direct">0.0%</text><circle cx="203.3" cy="366.7" r="7" class="dot winner"/><text x="203.3" y="351.7" text-anchor="middle" class="value winner">41.7%</text><circle cx="203.3" cy="446.7" r="7" class="dot direct"/><text x="203.3" y="431.7" text-anchor="middle" class="value direct">16.7%</text><circle cx="247.4" cy="340.0" r="7" class="dot winner"/><text x="247.4" y="325.0" text-anchor="middle" class="value winner">50.0%</text><circle cx="247.4" cy="446.7" r="7" class="dot direct"/><text x="247.4" y="431.7" text-anchor="middle" class="value direct">16.7%</text><circle cx="291.5" cy="340.0" r="7" class="dot winner"/><text x="291.5" y="325.0" text-anchor="middle" class="value winner">50.0%</text><circle cx="291.5" cy="464.4" r="7" class="dot direct"/><text x="291.5" y="449.4" text-anchor="middle" class="value direct">11.1%</text><circle cx="335.7" cy="313.3" r="7" class="dot winner"/><text x="335.7" y="298.3" text-anchor="middle" class="value winner">58.3%</text><circle cx="335.7" cy="473.3" r="7" class="dot direct"/><text x="335.7" y="458.3" text-anchor="middle" class="value direct">8.3%</text><circle cx="379.8" cy="366.7" r="7" class="dot winner"/><text x="379.8" y="351.7" text-anchor="middle" class="value winner">41.7%</text><circle cx="379.8" cy="500.0" r="7" class="dot direct"/><text x="379.8" y="485.0" text-anchor="middle" class="value direct">0.0%</text><circle cx="423.9" cy="446.7" r="7" class="dot winner"/><text x="423.9" y="431.7" text-anchor="middle" class="value winner">16.7%</text><circle cx="423.9" cy="500.0" r="7" class="dot direct"/><text x="423.9" y="485.0" text-anchor="middle" class="value direct">0.0%</text><circle cx="468.0" cy="366.7" r="7" class="dot winner"/><text x="468.0" y="351.7" text-anchor="middle" class="value winner">41.7%</text><circle cx="468.0" cy="473.3" r="7" class="dot direct"/><text x="468.0" y="458.3" text-anchor="middle" class="value direct">8.3%</text><circle cx="512.2" cy="340.0" r="7" class="dot winner"/><text x="512.2" y="325.0" text-anchor="middle" class="value winner">50.0%</text><circle cx="512.2" cy="500.0" r="7" class="dot direct"/><text x="512.2" y="485.0" text-anchor="middle" class="value direct">0.0%</text><circle cx="556.3" cy="420.0" r="7" class="dot winner"/><text x="556.3" y="405.0" text-anchor="middle" class="value winner">25.0%</text><circle cx="556.3" cy="446.7" r="7" class="dot direct"/><text x="556.3" y="431.7" text-anchor="middle" class="value direct">16.7%</text><circle cx="600.4" cy="366.7" r="7" class="dot winner"/><text x="600.4" y="351.7" text-anchor="middle" class="value winner">41.7%</text><circle cx="600.4" cy="500.0" r="7" class="dot direct"/><text x="600.4" y="485.0" text-anchor="middle" class="value direct">0.0%</text><circle cx="644.6" cy="420.0" r="7" class="dot winner"/><text x="644.6" y="405.0" text-anchor="middle" class="value winner">25.0%</text><circle cx="644.6" cy="500.0" r="7" class="dot direct"/><text x="644.6" y="485.0" text-anchor="middle" class="value direct">0.0%</text><circle cx="688.7" cy="313.3" r="7" class="dot winner"/><text x="688.7" y="298.3" text-anchor="middle" class="value winner">58.3%</text><circle cx="688.7" cy="473.3" r="7" class="dot direct"/><text x="688.7" y="458.3" text-anchor="middle" class="value direct">8.3%</text><circle cx="732.8" cy="304.4" r="7" class="dot winner"/><text x="732.8" y="289.4" text-anchor="middle" class="value winner">61.1%</text><circle cx="732.8" cy="446.7" r="7" class="dot direct"/><text x="732.8" y="431.7" text-anchor="middle" class="value direct">16.7%</text><circle cx="777.0" cy="420.0" r="7" class="dot winner"/><text x="777.0" y="405.0" text-anchor="middle" class="value winner">25.0%</text><circle cx="777.0" cy="473.3" r="7" class="dot direct"/><text x="777.0" y="458.3" text-anchor="middle" class="value direct">8.3%</text><circle cx="821.1" cy="366.7" r="7" class="dot winner"/><text x="821.1" y="351.7" text-anchor="middle" class="value winner">41.7%</text><circle cx="821.1" cy="500.0" r="7" class="dot direct"/><text x="821.1" y="485.0" text-anchor="middle" class="value direct">0.0%</text><circle cx="865.2" cy="286.7" r="7" class="dot winner"/><text x="865.2" y="271.7" text-anchor="middle" class="value winner">66.7%</text><circle cx="865.2" cy="393.3" r="7" class="dot direct"/><text x="865.2" y="378.3" text-anchor="middle" class="value direct">33.3%</text><circle cx="909.3" cy="313.3" r="7" class="dot winner"/><text x="909.3" y="298.3" text-anchor="middle" class="value winner">58.3%</text><circle cx="909.3" cy="473.3" r="7" class="dot direct"/><text x="909.3" y="458.3" text-anchor="middle" class="value direct">8.3%</text><circle cx="953.5" cy="393.3" r="7" class="dot winner"/><text x="953.5" y="378.3" text-anchor="middle" class="value winner">33.3%</text><circle cx="953.5" cy="464.4" r="7" class="dot direct"/><text x="953.5" y="449.4" text-anchor="middle" class="value direct">11.1%</text><circle cx="997.6" cy="286.7" r="7" class="dot winner"/><text x="997.6" y="271.7" text-anchor="middle" class="value winner">66.7%</text><circle cx="997.6" cy="420.0" r="7" class="dot direct"/><text x="997.6" y="405.0" text-anchor="middle" class="value direct">25.0%</text><circle cx="1041.7" cy="313.3" r="7" class="dot winner"/><text x="1041.7" y="298.3" text-anchor="middle" class="value winner">58.3%</text><circle cx="1041.7" cy="446.7" r="7" class="dot direct"/><text x="1041.7" y="431.7" text-anchor="middle" class="value direct">16.7%</text><circle cx="1085.9" cy="393.3" r="7" class="dot winner"/><text x="1085.9" y="378.3" text-anchor="middle" class="value winner">33.3%</text><circle cx="1085.9" cy="500.0" r="7" class="dot direct"/><text x="1085.9" y="485.0" text-anchor="middle" class="value direct">0.0%</text><circle cx="1130.0" cy="340.0" r="7" class="dot winner"/><text x="1130.0" y="325.0" text-anchor="middle" class="value winner">50.0%</text><circle cx="1130.0" cy="446.7" r="7" class="dot direct"/><text x="1130.0" y="431.7" text-anchor="middle" class="value direct">16.7%</text>
<text x="115.0" y="540" text-anchor="middle" class="axis strong">R1</text><text x="159.1" y="540" text-anchor="middle" class="axis strong">R2</text><text x="203.3" y="540" text-anchor="middle" class="axis strong">R3</text><text x="247.4" y="540" text-anchor="middle" class="axis strong">R4</text><text x="291.5" y="540" text-anchor="middle" class="axis strong">R5</text><text x="335.7" y="540" text-anchor="middle" class="axis strong">R6</text><text x="379.8" y="540" text-anchor="middle" class="axis strong">R7</text><text x="423.9" y="540" text-anchor="middle" class="axis strong">R8</text><text x="468.0" y="540" text-anchor="middle" class="axis strong">R9</text><text x="512.2" y="540" text-anchor="middle" class="axis strong">R10</text><text x="556.3" y="540" text-anchor="middle" class="axis strong">R11</text><text x="600.4" y="540" text-anchor="middle" class="axis strong">R12</text><text x="644.6" y="540" text-anchor="middle" class="axis strong">R13</text><text x="688.7" y="540" text-anchor="middle" class="axis strong">R14</text><text x="732.8" y="540" text-anchor="middle" class="axis strong">R15</text><text x="777.0" y="540" text-anchor="middle" class="axis strong">R16</text><text x="821.1" y="540" text-anchor="middle" class="axis strong">R17</text><text x="865.2" y="540" text-anchor="middle" class="axis strong">R18</text><text x="909.3" y="540" text-anchor="middle" class="axis strong">R19</text><text x="953.5" y="540" text-anchor="middle" class="axis strong">R20</text><text x="997.6" y="540" text-anchor="middle" class="axis strong">R21</text><text x="1041.7" y="540" text-anchor="middle" class="axis strong">R22</text><text x="1085.9" y="540" text-anchor="middle" class="axis strong">R23</text><text x="1130.0" y="540" text-anchor="middle" class="axis strong">R24</text>
<text x="70" y="570" class="note">Each round uses a fresh sealed panel. The line shows observed outcomes, not a training curve.</text>
<text x="70" y="598" class="note">Repeated leaders: 113/270 exact across 21 panels | 45/114 exact across 9 panels</text>
</svg>
