<svg xmlns="http://www.w3.org/2000/svg" width="1200" height="630" viewBox="0 0 1200 630" role="img" aria-labelledby="title desc">
<title id="title">Recursive Orchestration Improver progress</title>
<desc id="desc">Panel-winner and direct-baseline accuracy across 14 fresh sealed rounds. A separate note reports the strongest replicated system.</desc>
<defs>
  <linearGradient id="bg" x1="0" y1="0" x2="1" y2="1"><stop stop-color="#07111f"/><stop offset="1" stop-color="#140b2d"/></linearGradient>
  <filter id="glow"><feGaussianBlur stdDeviation="5" result="b"/><feMerge><feMergeNode in="b"/><feMergeNode in="SourceGraphic"/></feMerge></filter>
</defs>
<style>
  .title{font:700 38px ui-sans-serif,system-ui;fill:#f8fafc} .subtitle{font:500 20px ui-sans-serif,system-ui;fill:#a5b4c8}
  .grid{stroke:#27344a;stroke-width:1} .axis{font:500 16px ui-monospace,SFMono-Regular,monospace;fill:#8291a8} .strong{fill:#dbeafe;font-weight:700}
  .line{fill:none;stroke-width:5;stroke-linejoin:round;stroke-linecap:round} .line.winner{stroke:#31d7f4;filter:url(#glow)} .line.direct{stroke:#f5a4ff;stroke-dasharray:10 10}
  .dot{stroke:#07111f;stroke-width:4} .dot.winner{fill:#31d7f4} .dot.direct{fill:#f5a4ff}
  .value{font:700 15px ui-monospace,SFMono-Regular,monospace} .value.winner{fill:#8cecff} .value.direct{fill:#ffc4ff}
  .legend{font:600 17px ui-sans-serif,system-ui;fill:#dce8f7} .note{font:500 15px ui-sans-serif,system-ui;fill:#8fa0b8}
</style>
<rect width="1200" height="630" rx="28" fill="url(#bg)"/>
<text x="70" y="68" class="title">Recursive Orchestration Improver</text>
<text x="70" y="104" class="subtitle">Fresh-panel outcomes vary. Replication is the durable signal.</text>
<line x1="760" y1="70" x2="810" y2="70" class="line winner"/><text x="826" y="76" class="legend">Panel winner</text>
<line x1="760" y1="105" x2="810" y2="105" class="line direct"/><text x="826" y="111" class="legend">One Luna Light call</text>
<line x1="115" y1="500.0" x2="1130" y2="500.0" class="grid"/><text x="93" y="506.0" text-anchor="end" class="axis">0%</text><line x1="115" y1="436.0" x2="1130" y2="436.0" class="grid"/><text x="93" y="442.0" text-anchor="end" class="axis">20%</text><line x1="115" y1="372.0" x2="1130" y2="372.0" class="grid"/><text x="93" y="378.0" text-anchor="end" class="axis">40%</text><line x1="115" y1="308.0" x2="1130" y2="308.0" class="grid"/><text x="93" y="314.0" text-anchor="end" class="axis">60%</text><line x1="115" y1="244.0" x2="1130" y2="244.0" class="grid"/><text x="93" y="250.0" text-anchor="end" class="axis">80%</text><line x1="115" y1="180.0" x2="1130" y2="180.0" class="grid"/><text x="93" y="186.0" text-anchor="end" class="axis">100%</text>
<polyline points="115.0,340.0 193.1,366.7 271.2,366.7 349.2,340.0 427.3,340.0 505.4,313.3 583.5,366.7 661.5,446.7 739.6,366.7 817.7,340.0 895.8,420.0 973.8,366.7 1051.9,420.0 1130.0,313.3" class="line winner"/>
<polyline points="115.0,473.3 193.1,500.0 271.2,446.7 349.2,446.7 427.3,464.4 505.4,473.3 583.5,500.0 661.5,500.0 739.6,473.3 817.7,500.0 895.8,446.7 973.8,500.0 1051.9,500.0 1130.0,473.3" class="line direct"/>
<circle cx="115.0" cy="340.0" r="7" class="dot winner"/><text x="115.0" y="325.0" text-anchor="middle" class="value winner">50.0%</text><circle cx="115.0" cy="473.3" r="7" class="dot direct"/><text x="115.0" y="458.3" text-anchor="middle" class="value direct">8.3%</text><circle cx="193.1" cy="366.7" r="7" class="dot winner"/><text x="193.1" y="351.7" text-anchor="middle" class="value winner">41.7%</text><circle cx="193.1" cy="500.0" r="7" class="dot direct"/><text x="193.1" y="485.0" text-anchor="middle" class="value direct">0.0%</text><circle cx="271.2" cy="366.7" r="7" class="dot winner"/><text x="271.2" y="351.7" text-anchor="middle" class="value winner">41.7%</text><circle cx="271.2" cy="446.7" r="7" class="dot direct"/><text x="271.2" y="431.7" text-anchor="middle" class="value direct">16.7%</text><circle cx="349.2" cy="340.0" r="7" class="dot winner"/><text x="349.2" y="325.0" text-anchor="middle" class="value winner">50.0%</text><circle cx="349.2" cy="446.7" r="7" class="dot direct"/><text x="349.2" y="431.7" text-anchor="middle" class="value direct">16.7%</text><circle cx="427.3" cy="340.0" r="7" class="dot winner"/><text x="427.3" y="325.0" text-anchor="middle" class="value winner">50.0%</text><circle cx="427.3" cy="464.4" r="7" class="dot direct"/><text x="427.3" y="449.4" text-anchor="middle" class="value direct">11.1%</text><circle cx="505.4" cy="313.3" r="7" class="dot winner"/><text x="505.4" y="298.3" text-anchor="middle" class="value winner">58.3%</text><circle cx="505.4" cy="473.3" r="7" class="dot direct"/><text x="505.4" y="458.3" text-anchor="middle" class="value direct">8.3%</text><circle cx="583.5" cy="366.7" r="7" class="dot winner"/><text x="583.5" y="351.7" text-anchor="middle" class="value winner">41.7%</text><circle cx="583.5" cy="500.0" r="7" class="dot direct"/><text x="583.5" y="485.0" text-anchor="middle" class="value direct">0.0%</text><circle cx="661.5" cy="446.7" r="7" class="dot winner"/><text x="661.5" y="431.7" text-anchor="middle" class="value winner">16.7%</text><circle cx="661.5" cy="500.0" r="7" class="dot direct"/><text x="661.5" y="485.0" text-anchor="middle" class="value direct">0.0%</text><circle cx="739.6" cy="366.7" r="7" class="dot winner"/><text x="739.6" y="351.7" text-anchor="middle" class="value winner">41.7%</text><circle cx="739.6" cy="473.3" r="7" class="dot direct"/><text x="739.6" y="458.3" text-anchor="middle" class="value direct">8.3%</text><circle cx="817.7" cy="340.0" r="7" class="dot winner"/><text x="817.7" y="325.0" text-anchor="middle" class="value winner">50.0%</text><circle cx="817.7" cy="500.0" r="7" class="dot direct"/><text x="817.7" y="485.0" text-anchor="middle" class="value direct">0.0%</text><circle cx="895.8" cy="420.0" r="7" class="dot winner"/><text x="895.8" y="405.0" text-anchor="middle" class="value winner">25.0%</text><circle cx="895.8" cy="446.7" r="7" class="dot direct"/><text x="895.8" y="431.7" text-anchor="middle" class="value direct">16.7%</text><circle cx="973.8" cy="366.7" r="7" class="dot winner"/><text x="973.8" y="351.7" text-anchor="middle" class="value winner">41.7%</text><circle cx="973.8" cy="500.0" r="7" class="dot direct"/><text x="973.8" y="485.0" text-anchor="middle" class="value direct">0.0%</text><circle cx="1051.9" cy="420.0" r="7" class="dot winner"/><text x="1051.9" y="405.0" text-anchor="middle" class="value winner">25.0%</text><circle cx="1051.9" cy="500.0" r="7" class="dot direct"/><text x="1051.9" y="485.0" text-anchor="middle" class="value direct">0.0%</text><circle cx="1130.0" cy="313.3" r="7" class="dot winner"/><text x="1130.0" y="298.3" text-anchor="middle" class="value winner">58.3%</text><circle cx="1130.0" cy="473.3" r="7" class="dot direct"/><text x="1130.0" y="458.3" text-anchor="middle" class="value direct">8.3%</text>
<text x="115.0" y="540" text-anchor="middle" class="axis strong">R1</text><text x="193.1" y="540" text-anchor="middle" class="axis strong">R2</text><text x="271.2" y="540" text-anchor="middle" class="axis strong">R3</text><text x="349.2" y="540" text-anchor="middle" class="axis strong">R4</text><text x="427.3" y="540" text-anchor="middle" class="axis strong">R5</text><text x="505.4" y="540" text-anchor="middle" class="axis strong">R6</text><text x="583.5" y="540" text-anchor="middle" class="axis strong">R7</text><text x="661.5" y="540" text-anchor="middle" class="axis strong">R8</text><text x="739.6" y="540" text-anchor="middle" class="axis strong">R9</text><text x="817.7" y="540" text-anchor="middle" class="axis strong">R10</text><text x="895.8" y="540" text-anchor="middle" class="axis strong">R11</text><text x="973.8" y="540" text-anchor="middle" class="axis strong">R12</text><text x="1051.9" y="540" text-anchor="middle" class="axis strong">R13</text><text x="1130.0" y="540" text-anchor="middle" class="axis strong">R14</text>
<text x="70" y="570" class="note">Each round uses a fresh sealed panel. The line shows observed outcomes, not a training curve.</text>
<text x="70" y="598" class="note">Repeated leaders: 60/138 exact across 11 panels | 27/78 exact across 6 panels</text>
</svg>
