<svg xmlns="http://www.w3.org/2000/svg" width="1280" height="677" viewBox="0 0 1280 677"><rect width="100%" height="100%" fill="#080d1a"/><rect x="20" y="20" width="1240" height="637" rx="26" fill="#0d1426" stroke="#273555" stroke-width="2"/><text x="58.0" y="56.0" fill="#ffffff" font-size="30" font-family="Inter, ui-sans-serif, system-ui" text-anchor="start" font-weight="750">Iteration 24: orchestration accuracy</text><text x="58.0" y="88.0" fill="#9fb0d0" font-size="16" font-family="Inter, ui-sans-serif, system-ui" text-anchor="start" font-weight="400">12 fresh sealed problems · 233 Luna Light calls</text><line x1="390.0" y1="126" x2="390.0" y2="632" stroke="#25304a" stroke-width="1"/><text x="390.0" y="118.0" fill="#7181a6" font-size="12" font-family="Inter, ui-sans-serif, system-ui" text-anchor="middle" font-weight="400">0%</text><line x1="466.0" y1="126" x2="466.0" y2="632" stroke="#25304a" stroke-width="1"/><text x="466.0" y="118.0" fill="#7181a6" font-size="12" font-family="Inter, ui-sans-serif, system-ui" text-anchor="middle" font-weight="400">10%</text><line x1="542.0" y1="126" x2="542.0" y2="632" stroke="#25304a" stroke-width="1"/><text x="542.0" y="118.0" fill="#7181a6" font-size="12" font-family="Inter, ui-sans-serif, system-ui" text-anchor="middle" font-weight="400">20%</text><line x1="618.0" y1="126" x2="618.0" y2="632" stroke="#25304a" stroke-width="1"/><text x="618.0" y="118.0" fill="#7181a6" font-size="12" font-family="Inter, ui-sans-serif, system-ui" text-anchor="middle" font-weight="400">30%</text><line x1="694.0" y1="126" x2="694.0" y2="632" stroke="#25304a" stroke-width="1"/><text x="694.0" y="118.0" fill="#7181a6" font-size="12" font-family="Inter, ui-sans-serif, system-ui" text-anchor="middle" font-weight="400">40%</text><line x1="770.0" y1="126" x2="770.0" y2="632" stroke="#25304a" stroke-width="1"/><text x="770.0" y="118.0" fill="#7181a6" font-size="12" font-family="Inter, ui-sans-serif, system-ui" text-anchor="middle" font-weight="400">50%</text><line x1="846.0" y1="126" x2="846.0" y2="632" stroke="#25304a" stroke-width="1"/><text x="846.0" y="118.0" fill="#7181a6" font-size="12" font-family="Inter, ui-sans-serif, system-ui" text-anchor="middle" font-weight="400">60%</text><line x1="922.0" y1="126" x2="922.0" y2="632" stroke="#25304a" stroke-width="1"/><text x="922.0" y="118.0" fill="#7181a6" font-size="12" font-family="Inter, ui-sans-serif, system-ui" text-anchor="middle" font-weight="400">70%</text><line x1="998.0" y1="126" x2="998.0" y2="632" stroke="#25304a" stroke-width="1"/><text x="998.0" y="118.0" fill="#7181a6" font-size="12" font-family="Inter, ui-sans-serif, system-ui" text-anchor="middle" font-weight="400">80%</text><line x1="1074.0" y1="126" x2="1074.0" y2="632" stroke="#25304a" stroke-width="1"/><text x="1074.0" y="118.0" fill="#7181a6" font-size="12" font-family="Inter, ui-sans-serif, system-ui" text-anchor="middle" font-weight="400">90%</text><line x1="1150.0" y1="126" x2="1150.0" y2="632" stroke="#25304a" stroke-width="1"/><text x="1150.0" y="118.0" fill="#7181a6" font-size="12" font-family="Inter, ui-sans-serif, system-ui" text-anchor="middle" font-weight="400">100%</text><text x="366.0" y="160.0" fill="#ffffff" font-size="15" font-family="Inter, ui-sans-serif, system-ui" text-anchor="end" font-weight="650">Nine-Bank Falsifying Selection Panel</text><text x="366.0" y="181.0" fill="#8493b5" font-size="12" font-family="Inter, ui-sans-serif, system-ui" text-anchor="end" font-weight="400">12.0 calls/problem</text><rect x="390" y="143" width="380.0" height="13" rx="6" fill="#39dcff" opacity="0.88"/><rect x="390" y="161" width="190.0" height="13" rx="6" fill="#ffc857" opacity="0.88"/><rect x="390" y="179" width="570.0" height="13" rx="6" fill="#c477ff" opacity="0.88"/><line x1="770.0" y1="138" x2="770.0" y2="196" stroke="#ffffff" stroke-width="3"/><text x="1168.0" y="162.0" fill="#ffffff" font-size="20" font-family="Inter, ui-sans-serif, system-ui" text-anchor="start" font-weight="750">50.0%</text><text x="1168.0" y="184.0" fill="#9fb0d0" font-size="12" font-family="Inter, ui-sans-serif, system-ui" text-anchor="start" font-weight="400">review net +5</text><text x="366.0" y="242.0" fill="#ffffff" font-size="15" font-family="Inter, ui-sans-serif, system-ui" text-anchor="end" font-weight="650">Efficient Five-Bank Falsifying Repair</text><text x="366.0" y="263.0" fill="#8493b5" font-size="12" font-family="Inter, ui-sans-serif, system-ui" text-anchor="end" font-weight="400">7.8 calls/problem</text><rect x="390" y="225" width="380.0" height="13" rx="6" fill="#39dcff" opacity="0.88"/><rect x="390" y="243" width="190.0" height="13" rx="6" fill="#ffc857" opacity="0.88"/><rect x="390" y="261" width="380.0" height="13" rx="6" fill="#c477ff" opacity="0.88"/><line x1="706.7" y1="220" x2="706.7" y2="278" stroke="#ffffff" stroke-width="3"/><text x="1168.0" y="244.0" fill="#ffffff" font-size="20" font-family="Inter, ui-sans-serif, system-ui" text-anchor="start" font-weight="750">41.7%</text><text x="1168.0" y="266.0" fill="#9fb0d0" font-size="12" font-family="Inter, ui-sans-serif, system-ui" text-anchor="start" font-weight="400">review net +3</text><text x="366.0" y="324.0" fill="#ffffff" font-size="15" font-family="Inter, ui-sans-serif, system-ui" text-anchor="end" font-weight="650">Blind Regeneration then Falsifying Integration</text><text x="366.0" y="345.0" fill="#8493b5" font-size="12" font-family="Inter, ui-sans-serif, system-ui" text-anchor="end" font-weight="400">8.7 calls/problem</text><rect x="390" y="307" width="380.0" height="13" rx="6" fill="#39dcff" opacity="0.88"/><rect x="390" y="325" width="190.0" height="13" rx="6" fill="#ffc857" opacity="0.88"/><rect x="390" y="343" width="380.0" height="13" rx="6" fill="#c477ff" opacity="0.88"/><line x1="706.7" y1="302" x2="706.7" y2="360" stroke="#ffffff" stroke-width="3"/><text x="1168.0" y="326.0" fill="#ffffff" font-size="20" font-family="Inter, ui-sans-serif, system-ui" text-anchor="start" font-weight="750">41.7%</text><text x="1168.0" y="348.0" fill="#9fb0d0" font-size="12" font-family="Inter, ui-sans-serif, system-ui" text-anchor="start" font-weight="400">review net +3</text><text x="366.0" y="406.0" fill="#ffffff" font-size="15" font-family="Inter, ui-sans-serif, system-ui" text-anchor="end" font-weight="650">One-Review Nine-Bank Falsifying Repair</text><text x="366.0" y="427.0" fill="#8493b5" font-size="12" font-family="Inter, ui-sans-serif, system-ui" text-anchor="end" font-weight="400">10.0 calls/problem</text><rect x="390" y="389" width="0.0" height="13" rx="6" fill="#39dcff" opacity="0.88"/><rect x="390" y="407" width="190.0" height="13" rx="6" fill="#ffc857" opacity="0.88"/><rect x="390" y="425" width="190.0" height="13" rx="6" fill="#c477ff" opacity="0.88"/><line x1="516.7" y1="384" x2="516.7" y2="442" stroke="#ffffff" stroke-width="3"/><text x="1168.0" y="408.0" fill="#ffffff" font-size="20" font-family="Inter, ui-sans-serif, system-ui" text-anchor="start" font-weight="750">16.7%</text><text x="1168.0" y="430.0" fill="#9fb0d0" font-size="12" font-family="Inter, ui-sans-serif, system-ui" text-anchor="start" font-weight="400">review net +1</text><text x="366.0" y="488.0" fill="#ffffff" font-size="15" font-family="Inter, ui-sans-serif, system-ui" text-anchor="end" font-weight="650">Direct One</text><text x="366.0" y="509.0" fill="#8493b5" font-size="12" font-family="Inter, ui-sans-serif, system-ui" text-anchor="end" font-weight="400">1.0 calls/problem</text><rect x="390" y="471" width="190.0" height="13" rx="6" fill="#39dcff" opacity="0.88"/><rect x="390" y="489" width="0.0" height="13" rx="6" fill="#ffc857" opacity="0.88"/><rect x="390" y="507" width="190.0" height="13" rx="6" fill="#c477ff" opacity="0.88"/><line x1="516.7" y1="466" x2="516.7" y2="524" stroke="#ffffff" stroke-width="3"/><text x="1168.0" y="490.0" fill="#ffffff" font-size="20" font-family="Inter, ui-sans-serif, system-ui" text-anchor="start" font-weight="750">16.7%</text><text x="366.0" y="570.0" fill="#ffffff" font-size="15" font-family="Inter, ui-sans-serif, system-ui" text-anchor="end" font-weight="650">Five-Vote Plurality</text><text x="366.0" y="591.0" fill="#8493b5" font-size="12" font-family="Inter, ui-sans-serif, system-ui" text-anchor="end" font-weight="400">5.0 calls/problem</text><rect x="390" y="553" width="190.0" height="13" rx="6" fill="#39dcff" opacity="0.88"/><rect x="390" y="571" width="0.0" height="13" rx="6" fill="#ffc857" opacity="0.88"/><rect x="390" y="589" width="190.0" height="13" rx="6" fill="#c477ff" opacity="0.88"/><line x1="516.7" y1="548" x2="516.7" y2="606" stroke="#ffffff" stroke-width="3"/><text x="1168.0" y="572.0" fill="#ffffff" font-size="20" font-family="Inter, ui-sans-serif, system-ui" text-anchor="start" font-weight="750">16.7%</text><text x="58.0" y="657.0" fill="#9fb0d0" font-size="13" font-family="Inter, ui-sans-serif, system-ui" text-anchor="start" font-weight="400">Cyan sequence   Gold planning   Violet logic   White marker pooled exact</text></svg>